<mxfile host="app.diagrams.net" modified="2024-04-23T03:27:56.599Z" agent="Mozilla/5.0 (Macintosh; Intel Mac OS X 10_15_7) AppleWebKit/537.36 (KHTML, like Gecko) Chrome/123.0.0.0 Safari/537.36" etag="5F0xyIHDRqz8sGojFKbl" version="24.2.8" type="github">
  <diagram name="第 1 页" id="eonTo-YBBeBDWZ1BXOwh">
    <mxGraphModel dx="1434" dy="786" grid="1" gridSize="10" guides="1" tooltips="1" connect="1" arrows="1" fold="1" page="1" pageScale="1" pageWidth="827" pageHeight="1169" math="1" shadow="0">
      <root>
        <mxCell id="0" />
        <mxCell id="1" parent="0" />
        <mxCell id="kvj4Kk1q9P-7B0Aj4nHL-8" style="edgeStyle=orthogonalEdgeStyle;rounded=0;orthogonalLoop=1;jettySize=auto;html=1;entryX=0.25;entryY=1;entryDx=0;entryDy=0;curved=1;" edge="1" parent="1" source="kvj4Kk1q9P-7B0Aj4nHL-1" target="kvj4Kk1q9P-7B0Aj4nHL-5">
          <mxGeometry relative="1" as="geometry" />
        </mxCell>
        <mxCell id="kvj4Kk1q9P-7B0Aj4nHL-1" value="" style="rounded=0;whiteSpace=wrap;html=1;" vertex="1" parent="1">
          <mxGeometry x="115" y="155" width="210" height="70" as="geometry" />
        </mxCell>
        <mxCell id="kvj4Kk1q9P-7B0Aj4nHL-2" value="&lt;b&gt;New Task&lt;/b&gt;" style="text;html=1;align=center;verticalAlign=middle;resizable=0;points=[];autosize=1;strokeColor=none;fillColor=none;" vertex="1" parent="1">
          <mxGeometry x="170" y="110" width="80" height="30" as="geometry" />
        </mxCell>
        <mxCell id="kvj4Kk1q9P-7B0Aj4nHL-7" style="edgeStyle=orthogonalEdgeStyle;rounded=0;orthogonalLoop=1;jettySize=auto;html=1;curved=1;entryX=0.569;entryY=0.986;entryDx=0;entryDy=0;entryPerimeter=0;" edge="1" parent="1" source="kvj4Kk1q9P-7B0Aj4nHL-3" target="kvj4Kk1q9P-7B0Aj4nHL-5">
          <mxGeometry relative="1" as="geometry">
            <mxPoint x="400" y="300" as="targetPoint" />
          </mxGeometry>
        </mxCell>
        <mxCell id="kvj4Kk1q9P-7B0Aj4nHL-3" value="" style="rounded=0;whiteSpace=wrap;html=1;dashed=1;" vertex="1" parent="1">
          <mxGeometry x="170" y="236.25" width="95" height="190" as="geometry" />
        </mxCell>
        <mxCell id="kvj4Kk1q9P-7B0Aj4nHL-4" value="&lt;b&gt;Learned Task&lt;/b&gt;" style="text;html=1;align=center;verticalAlign=middle;resizable=0;points=[];autosize=1;strokeColor=none;fillColor=none;" vertex="1" parent="1">
          <mxGeometry x="165" y="442.5" width="100" height="30" as="geometry" />
        </mxCell>
        <mxCell id="kvj4Kk1q9P-7B0Aj4nHL-11" style="edgeStyle=orthogonalEdgeStyle;rounded=0;orthogonalLoop=1;jettySize=auto;html=1;entryX=0;entryY=0.5;entryDx=0;entryDy=0;curved=1;" edge="1" parent="1" source="kvj4Kk1q9P-7B0Aj4nHL-5" target="kvj4Kk1q9P-7B0Aj4nHL-14">
          <mxGeometry relative="1" as="geometry">
            <mxPoint x="560" y="230" as="targetPoint" />
          </mxGeometry>
        </mxCell>
        <mxCell id="kvj4Kk1q9P-7B0Aj4nHL-12" style="edgeStyle=orthogonalEdgeStyle;rounded=0;orthogonalLoop=1;jettySize=auto;html=1;entryX=0;entryY=0.5;entryDx=0;entryDy=0;curved=1;" edge="1" parent="1" source="kvj4Kk1q9P-7B0Aj4nHL-5" target="kvj4Kk1q9P-7B0Aj4nHL-15">
          <mxGeometry relative="1" as="geometry">
            <mxPoint x="560" y="320" as="targetPoint" />
          </mxGeometry>
        </mxCell>
        <mxCell id="kvj4Kk1q9P-7B0Aj4nHL-5" value="" style="shape=trapezoid;perimeter=trapezoidPerimeter;whiteSpace=wrap;html=1;fixedSize=1;rotation=90;" vertex="1" parent="1">
          <mxGeometry x="380" y="250" width="130" height="70" as="geometry" />
        </mxCell>
        <mxCell id="kvj4Kk1q9P-7B0Aj4nHL-6" value="&lt;i&gt;&lt;font face=&quot;Times New Roman&quot; style=&quot;font-size: 18px;&quot;&gt;F&lt;/font&gt;&lt;/i&gt;" style="text;html=1;align=center;verticalAlign=middle;whiteSpace=wrap;rounded=0;" vertex="1" parent="1">
          <mxGeometry x="420" y="255" width="50" height="60" as="geometry" />
        </mxCell>
        <mxCell id="kvj4Kk1q9P-7B0Aj4nHL-10" value="&lt;b&gt;Feature&amp;nbsp;&lt;/b&gt;&lt;div&gt;&lt;b&gt;Extractor&lt;/b&gt;&lt;/div&gt;" style="text;html=1;align=center;verticalAlign=middle;whiteSpace=wrap;rounded=0;" vertex="1" parent="1">
          <mxGeometry x="420" y="160" width="75" height="50" as="geometry" />
        </mxCell>
        <mxCell id="kvj4Kk1q9P-7B0Aj4nHL-19" style="edgeStyle=orthogonalEdgeStyle;rounded=0;orthogonalLoop=1;jettySize=auto;html=1;entryX=0;entryY=0.5;entryDx=0;entryDy=0;" edge="1" parent="1" source="kvj4Kk1q9P-7B0Aj4nHL-14" target="kvj4Kk1q9P-7B0Aj4nHL-17">
          <mxGeometry relative="1" as="geometry" />
        </mxCell>
        <mxCell id="kvj4Kk1q9P-7B0Aj4nHL-14" value="" style="rounded=0;whiteSpace=wrap;html=1;fillColor=#bac8d3;strokeColor=#23445d;" vertex="1" parent="1">
          <mxGeometry x="600" y="160" width="20" height="110" as="geometry" />
        </mxCell>
        <mxCell id="kvj4Kk1q9P-7B0Aj4nHL-20" style="edgeStyle=orthogonalEdgeStyle;rounded=0;orthogonalLoop=1;jettySize=auto;html=1;entryX=0;entryY=0.5;entryDx=0;entryDy=0;" edge="1" parent="1" source="kvj4Kk1q9P-7B0Aj4nHL-15" target="kvj4Kk1q9P-7B0Aj4nHL-17">
          <mxGeometry relative="1" as="geometry" />
        </mxCell>
        <mxCell id="kvj4Kk1q9P-7B0Aj4nHL-15" value="" style="rounded=0;whiteSpace=wrap;html=1;fillColor=#bac8d3;strokeColor=#23445d;" vertex="1" parent="1">
          <mxGeometry x="600" y="300" width="20" height="110" as="geometry" />
        </mxCell>
        <mxCell id="kvj4Kk1q9P-7B0Aj4nHL-16" value="&lt;b&gt;Feature&amp;nbsp;&lt;/b&gt;&lt;div&gt;&lt;b&gt;Vector&lt;/b&gt;&lt;/div&gt;" style="text;html=1;align=center;verticalAlign=middle;whiteSpace=wrap;rounded=0;" vertex="1" parent="1">
          <mxGeometry x="525" y="128" width="75" height="50" as="geometry" />
        </mxCell>
        <mxCell id="kvj4Kk1q9P-7B0Aj4nHL-22" value="" style="edgeStyle=orthogonalEdgeStyle;rounded=0;orthogonalLoop=1;jettySize=auto;html=1;" edge="1" parent="1" source="kvj4Kk1q9P-7B0Aj4nHL-17" target="kvj4Kk1q9P-7B0Aj4nHL-21">
          <mxGeometry relative="1" as="geometry" />
        </mxCell>
        <mxCell id="kvj4Kk1q9P-7B0Aj4nHL-17" value="&lt;i&gt;&lt;font style=&quot;font-size: 16px;&quot; face=&quot;Times New Roman&quot;&gt;CS&lt;/font&gt;&lt;/i&gt;" style="whiteSpace=wrap;html=1;aspect=fixed;" vertex="1" parent="1">
          <mxGeometry x="760" y="240" width="80" height="80" as="geometry" />
        </mxCell>
        <mxCell id="kvj4Kk1q9P-7B0Aj4nHL-18" value="&lt;b&gt;Feature Similarity Calculation&lt;/b&gt;" style="text;html=1;align=center;verticalAlign=middle;whiteSpace=wrap;rounded=0;" vertex="1" parent="1">
          <mxGeometry x="760" y="150" width="75" height="50" as="geometry" />
        </mxCell>
        <mxCell id="kvj4Kk1q9P-7B0Aj4nHL-25" value="" style="edgeStyle=orthogonalEdgeStyle;rounded=0;orthogonalLoop=1;jettySize=auto;html=1;" edge="1" parent="1" source="kvj4Kk1q9P-7B0Aj4nHL-21" target="kvj4Kk1q9P-7B0Aj4nHL-24">
          <mxGeometry relative="1" as="geometry" />
        </mxCell>
        <mxCell id="kvj4Kk1q9P-7B0Aj4nHL-21" value="Score" style="whiteSpace=wrap;html=1;" vertex="1" parent="1">
          <mxGeometry x="910" y="250" width="70" height="60" as="geometry" />
        </mxCell>
        <mxCell id="kvj4Kk1q9P-7B0Aj4nHL-23" value="&lt;b&gt;Result&lt;/b&gt;" style="text;html=1;align=center;verticalAlign=middle;whiteSpace=wrap;rounded=0;" vertex="1" parent="1">
          <mxGeometry x="905" y="170" width="75" height="40" as="geometry" />
        </mxCell>
        <mxCell id="kvj4Kk1q9P-7B0Aj4nHL-41" style="edgeStyle=orthogonalEdgeStyle;rounded=0;orthogonalLoop=1;jettySize=auto;html=1;entryX=0.5;entryY=1;entryDx=0;entryDy=0;curved=1;exitX=0.5;exitY=1;exitDx=0;exitDy=0;dashed=1;" edge="1" parent="1" source="kvj4Kk1q9P-7B0Aj4nHL-24" target="kvj4Kk1q9P-7B0Aj4nHL-26">
          <mxGeometry relative="1" as="geometry" />
        </mxCell>
        <mxCell id="kvj4Kk1q9P-7B0Aj4nHL-24" value="RANK" style="whiteSpace=wrap;html=1;" vertex="1" parent="1">
          <mxGeometry x="910" y="377.5" width="70" height="60" as="geometry" />
        </mxCell>
        <mxCell id="kvj4Kk1q9P-7B0Aj4nHL-26" value="" style="rounded=0;whiteSpace=wrap;html=1;" vertex="1" parent="1">
          <mxGeometry x="690" y="370" width="170" height="110" as="geometry" />
        </mxCell>
        <mxCell id="kvj4Kk1q9P-7B0Aj4nHL-27" value="" style="endArrow=none;html=1;rounded=0;" edge="1" parent="1">
          <mxGeometry width="50" height="50" relative="1" as="geometry">
            <mxPoint x="730" y="442.5" as="sourcePoint" />
            <mxPoint x="830" y="442.5" as="targetPoint" />
          </mxGeometry>
        </mxCell>
        <mxCell id="kvj4Kk1q9P-7B0Aj4nHL-28" value="" style="endArrow=none;html=1;rounded=0;" edge="1" parent="1">
          <mxGeometry width="50" height="50" relative="1" as="geometry">
            <mxPoint x="730" y="442.5" as="sourcePoint" />
            <mxPoint x="730" y="382.5" as="targetPoint" />
          </mxGeometry>
        </mxCell>
        <mxCell id="kvj4Kk1q9P-7B0Aj4nHL-32" value="$$x_1$$" style="text;html=1;align=center;verticalAlign=middle;resizable=0;points=[];autosize=1;strokeColor=none;fillColor=none;" vertex="1" parent="1">
          <mxGeometry x="705" y="442.5" width="70" height="30" as="geometry" />
        </mxCell>
        <mxCell id="kvj4Kk1q9P-7B0Aj4nHL-33" value="$$x_2$$" style="text;html=1;align=center;verticalAlign=middle;resizable=0;points=[];autosize=1;strokeColor=none;fillColor=none;" vertex="1" parent="1">
          <mxGeometry x="740" y="442.5" width="70" height="30" as="geometry" />
        </mxCell>
        <mxCell id="kvj4Kk1q9P-7B0Aj4nHL-34" value="$$x_3$$" style="text;html=1;align=center;verticalAlign=middle;resizable=0;points=[];autosize=1;strokeColor=none;fillColor=none;" vertex="1" parent="1">
          <mxGeometry x="780" y="442.5" width="70" height="30" as="geometry" />
        </mxCell>
        <mxCell id="kvj4Kk1q9P-7B0Aj4nHL-35" value="Rank" style="text;html=1;align=center;verticalAlign=middle;resizable=0;points=[];autosize=1;strokeColor=none;fillColor=none;rotation=-90;" vertex="1" parent="1">
          <mxGeometry x="690" y="402.5" width="50" height="30" as="geometry" />
        </mxCell>
        <mxCell id="kvj4Kk1q9P-7B0Aj4nHL-36" value="" style="rounded=0;whiteSpace=wrap;html=1;fillColor=#b0e3e6;strokeColor=#0e8088;" vertex="1" parent="1">
          <mxGeometry x="730" y="402.5" width="20" height="40" as="geometry" />
        </mxCell>
        <mxCell id="kvj4Kk1q9P-7B0Aj4nHL-37" value="" style="rounded=0;whiteSpace=wrap;html=1;fillColor=#b1ddf0;strokeColor=#10739e;" vertex="1" parent="1">
          <mxGeometry x="765" y="392.5" width="20" height="50" as="geometry" />
        </mxCell>
        <mxCell id="kvj4Kk1q9P-7B0Aj4nHL-38" value="" style="rounded=0;whiteSpace=wrap;html=1;fillColor=#b1ddf0;strokeColor=#6d8e9c;" vertex="1" parent="1">
          <mxGeometry x="800" y="412.5" width="20" height="30" as="geometry" />
        </mxCell>
        <mxCell id="kvj4Kk1q9P-7B0Aj4nHL-43" value="" style="shape=image;verticalLabelPosition=bottom;labelBackgroundColor=default;verticalAlign=top;aspect=fixed;imageAspect=0;image=data:image/jpeg,/9j/4AAQSkZJRgABAQAAkACQAAD/4QB0RXhpZgAATU0AKgAAAAgABAEaAAUAAAABAAAAPgEbAAUAAAABAAAARgEoAAMAAAABAAIAAIdpAAQAAAABAAAATgAAAAAAAACQAAAAAQAAAJAAAAABAAKgAgAEAAAAAQAAAZ6gAwAEAAAAAQAAAIgAAAAA/+0AOFBob3Rvc2hvcCAzLjAAOEJJTQQEAAAAAAAAOEJJTQQlAAAAAAAQ1B2M2Y8AsgTpgAmY7PhCfv/iDSBJQ0NfUFJPRklMRQABAQAADRBhcHBsAhAAAG1udHJSR0IgWFlaIAfoAAEABAAPAAsAAWFjc3BBUFBMAAAAAEFQUEwAAAAAAAAAAAAAAAAAAAAAAAD21gABAAAAANMtYXBwbAAAAAAAAAAAAAAAAAAAAAAAAAAAAAAAAAAAAAAAAAAAAAAAAAAAAAAAAAAAAAAAEWRlc2MAAAFQAAAAYmRzY20AAAG0AAAB6mNwcnQAAAOgAAAAI3d0cHQAAAPEAAAAFHJYWVoAAAPYAAAAFGdYWVoAAAPsAAAAFGJYWVoAAAQAAAAAFHJUUkMAAAQUAAAIDGFhcmcAAAwgAAAAIHZjZ3QAAAxAAAAAMG5kaW4AAAxwAAAAPm1tb2QAAAywAAAAKHZjZ3AAAAzYAAAAOGJUUkMAAAQUAAAIDGdUUkMAAAQUAAAIDGFhYmcAAAwgAAAAIGFhZ2cAAAwgAAAAIGRlc2MAAAAAAAAACERpc3BsYXkAAAAAAAAAAAAAAAAAAAAAAAAAAAAAAAAAAAAAAAAAAAAAAAAAAAAAAAAAAAAAAAAAAAAAAAAAAAAAAAAAAAAAAAAAAAAAAAAAAAAAAAAAAABtbHVjAAAAAAAAACYAAAAMaHJIUgAAABIAAAHYa29LUgAAABIAAAHYbmJOTwAAABIAAAHYaWQAAAAAABIAAAHYaHVIVQAAABIAAAHYY3NDWgAAABIAAAHYZGFESwAAABIAAAHYbmxOTAAAABIAAAHYZmlGSQAAABIAAAHYaXRJVAAAABIAAAHYZXNFUwAAABIAAAHYcm9STwAAABIAAAHYZnJDQQAAABIAAAHYYXIAAAAAABIAAAHYdWtVQQAAABIAAAHYaGVJTAAAABIAAAHYemhUVwAAABIAAAHYdmlWTgAAABIAAAHYc2tTSwAAABIAAAHYemhDTgAAABIAAAHYcnVSVQAAABIAAAHYZW5HQgAAABIAAAHYZnJGUgAAABIAAAHYbXMAAAAAABIAAAHYaGlJTgAAABIAAAHYdGhUSAAAABIAAAHYY2FFUwAAABIAAAHYZW5BVQAAABIAAAHYZXNYTAAAABIAAAHYZGVERQAAABIAAAHYZW5VUwAAABIAAAHYcHRCUgAAABIAAAHYcGxQTAAAABIAAAHYZWxHUgAAABIAAAHYc3ZTRQAAABIAAAHYdHJUUgAAABIAAAHYcHRQVAAAABIAAAHYamFKUAAAABIAAAHYAEMAbwBsAG8AcgAgAEwAQwBEAAB0ZXh0AAAAAENvcHlyaWdodCBBcHBsZSBJbmMuLCAyMDI0AABYWVogAAAAAAAA8xYAAQAAAAEWylhZWiAAAAAAAACDCgAAPW7///+8WFlaIAAAAAAAAEv6AAC0IQAACuBYWVogAAAAAAAAJ9IAAA5wAADIkWN1cnYAAAAAAAAEAAAAAAUACgAPABQAGQAeACMAKAAtADIANgA7AEAARQBKAE8AVABZAF4AYwBoAG0AcgB3AHwAgQCGAIsAkACVAJoAnwCjAKgArQCyALcAvADBAMYAywDQANUA2wDgAOUA6wDwAPYA+wEBAQcBDQETARkBHwElASsBMgE4AT4BRQFMAVIBWQFgAWcBbgF1AXwBgwGLAZIBmgGhAakBsQG5AcEByQHRAdkB4QHpAfIB+gIDAgwCFAIdAiYCLwI4AkECSwJUAl0CZwJxAnoChAKOApgCogKsArYCwQLLAtUC4ALrAvUDAAMLAxYDIQMtAzgDQwNPA1oDZgNyA34DigOWA6IDrgO6A8cD0wPgA+wD+QQGBBMEIAQtBDsESARVBGMEcQR+BIwEmgSoBLYExATTBOEE8AT+BQ0FHAUrBToFSQVYBWcFdwWGBZYFpgW1BcUF1QXlBfYGBgYWBicGNwZIBlkGagZ7BowGnQavBsAG0QbjBvUHBwcZBysHPQdPB2EHdAeGB5kHrAe/B9IH5Qf4CAsIHwgyCEYIWghuCIIIlgiqCL4I0gjnCPsJEAklCToJTwlkCXkJjwmkCboJzwnlCfsKEQonCj0KVApqCoEKmAquCsUK3ArzCwsLIgs5C1ELaQuAC5gLsAvIC+EL+QwSDCoMQwxcDHUMjgynDMAM2QzzDQ0NJg1ADVoNdA2ODakNww3eDfgOEw4uDkkOZA5/DpsOtg7SDu4PCQ8lD0EPXg96D5YPsw/PD+wQCRAmEEMQYRB+EJsQuRDXEPURExExEU8RbRGMEaoRyRHoEgcSJhJFEmQShBKjEsMS4xMDEyMTQxNjE4MTpBPFE+UUBhQnFEkUahSLFK0UzhTwFRIVNBVWFXgVmxW9FeAWAxYmFkkWbBaPFrIW1hb6Fx0XQRdlF4kXrhfSF/cYGxhAGGUYihivGNUY+hkgGUUZaxmRGbcZ3RoEGioaURp3Gp4axRrsGxQbOxtjG4obshvaHAIcKhxSHHscoxzMHPUdHh1HHXAdmR3DHeweFh5AHmoelB6+HukfEx8+H2kflB+/H+ogFSBBIGwgmCDEIPAhHCFIIXUhoSHOIfsiJyJVIoIiryLdIwojOCNmI5QjwiPwJB8kTSR8JKsk2iUJJTglaCWXJccl9yYnJlcmhya3JugnGCdJJ3onqyfcKA0oPyhxKKIo1CkGKTgpaymdKdAqAio1KmgqmyrPKwIrNitpK50r0SwFLDksbiyiLNctDC1BLXYtqy3hLhYuTC6CLrcu7i8kL1ovkS/HL/4wNTBsMKQw2zESMUoxgjG6MfIyKjJjMpsy1DMNM0YzfzO4M/E0KzRlNJ402DUTNU01hzXCNf02NzZyNq426TckN2A3nDfXOBQ4UDiMOMg5BTlCOX85vDn5OjY6dDqyOu87LTtrO6o76DwnPGU8pDzjPSI9YT2hPeA+ID5gPqA+4D8hP2E/oj/iQCNAZECmQOdBKUFqQaxB7kIwQnJCtUL3QzpDfUPARANER0SKRM5FEkVVRZpF3kYiRmdGq0bwRzVHe0fASAVIS0iRSNdJHUljSalJ8Eo3Sn1KxEsMS1NLmkviTCpMcky6TQJNSk2TTdxOJU5uTrdPAE9JT5NP3VAnUHFQu1EGUVBRm1HmUjFSfFLHUxNTX1OqU/ZUQlSPVNtVKFV1VcJWD1ZcVqlW91dEV5JX4FgvWH1Yy1kaWWlZuFoHWlZaplr1W0VblVvlXDVchlzWXSddeF3JXhpebF69Xw9fYV+zYAVgV2CqYPxhT2GiYfViSWKcYvBjQ2OXY+tkQGSUZOllPWWSZedmPWaSZuhnPWeTZ+loP2iWaOxpQ2maafFqSGqfavdrT2una/9sV2yvbQhtYG25bhJua27Ebx5veG/RcCtwhnDgcTpxlXHwcktypnMBc11zuHQUdHB0zHUodYV14XY+dpt2+HdWd7N4EXhueMx5KnmJeed6RnqlewR7Y3vCfCF8gXzhfUF9oX4BfmJ+wn8jf4R/5YBHgKiBCoFrgc2CMIKSgvSDV4O6hB2EgITjhUeFq4YOhnKG14c7h5+IBIhpiM6JM4mZif6KZIrKizCLlov8jGOMyo0xjZiN/45mjs6PNo+ekAaQbpDWkT+RqJIRknqS45NNk7aUIJSKlPSVX5XJljSWn5cKl3WX4JhMmLiZJJmQmfyaaJrVm0Kbr5wcnImc951kndKeQJ6unx2fi5/6oGmg2KFHobaiJqKWowajdqPmpFakx6U4pammGqaLpv2nbqfgqFKoxKk3qamqHKqPqwKrdavprFys0K1ErbiuLa6hrxavi7AAsHWw6rFgsdayS7LCszizrrQltJy1E7WKtgG2ebbwt2i34LhZuNG5SrnCuju6tbsuu6e8IbybvRW9j74KvoS+/796v/XAcMDswWfB48JfwtvDWMPUxFHEzsVLxcjGRsbDx0HHv8g9yLzJOsm5yjjKt8s2y7bMNcy1zTXNtc42zrbPN8+40DnQutE80b7SP9LB00TTxtRJ1MvVTtXR1lXW2Ndc1+DYZNjo2WzZ8dp22vvbgNwF3IrdEN2W3hzeot8p36/gNuC94UThzOJT4tvjY+Pr5HPk/OWE5g3mlucf56noMui86Ubp0Opb6uXrcOv77IbtEe2c7ijutO9A78zwWPDl8XLx//KM8xnzp/Q09ML1UPXe9m32+/eK+Bn4qPk4+cf6V/rn+3f8B/yY/Sn9uv5L/tz/bf//cGFyYQAAAAAAAwAAAAJmZgAA8qcAAA1ZAAAT0AAAClt2Y2d0AAAAAAAAAAEAAQAAAAAAAAABAAAAAQAAAAAAAAABAAAAAQAAAAAAAAABAABuZGluAAAAAAAAADYAAK4AAABSAAAAQ8AAALDAAAAmgAAADYAAAFAAAABUQAACMzMAAjMzAAIzMwAAAAAAAAAAbW1vZAAAAAAAAAYQAACgRAAAAADZk12AAAAAAAAAAAAAAAAAAAAAAHZjZ3AAAAAAAAMAAAACZmYAAwAAAAJmZgADAAAAAmZmAAAAAjMzNAAAAAACMzM0AAAAAAIzMzQA/8AAEQgAiAGeAwEiAAIRAQMRAf/EAB8AAAEFAQEBAQEBAAAAAAAAAAABAgMEBQYHCAkKC//EALUQAAIBAwMCBAMFBQQEAAABfQECAwAEEQUSITFBBhNRYQcicRQygZGhCCNCscEVUtHwJDNicoIJChYXGBkaJSYnKCkqNDU2Nzg5OkNERUZHSElKU1RVVldYWVpjZGVmZ2hpanN0dXZ3eHl6g4SFhoeIiYqSk5SVlpeYmZqio6Slpqeoqaqys7S1tre4ubrCw8TFxsfIycrS09TV1tfY2drh4uPk5ebn6Onq8fLz9PX29/j5+v/EAB8BAAMBAQEBAQEBAQEAAAAAAAABAgMEBQYHCAkKC//EALURAAIBAgQEAwQHBQQEAAECdwABAgMRBAUhMQYSQVEHYXETIjKBCBRCkaGxwQkjM1LwFWJy0QoWJDThJfEXGBkaJicoKSo1Njc4OTpDREVGR0hJSlNUVVZXWFlaY2RlZmdoaWpzdHV2d3h5eoKDhIWGh4iJipKTlJWWl5iZmqKjpKWmp6ipqrKztLW2t7i5usLDxMXGx8jJytLT1NXW19jZ2uLj5OXm5+jp6vLz9PX29/j5+v/bAEMAAgICAgICBAICBAYEBAQGCAYGBgYICggICAgICgwKCgoKCgoMDAwMDAwMDA4ODg4ODhAQEBAQEhISEhISEhISEv/bAEMBAwMDBQQFCAQECBMNCw0TExMTExMTExMTExMTExMTExMTExMTExMTExMTExMTExMTExMTExMTExMTExMTExMTE//dAAQAGv/aAAwDAQACEQMRAD8A/Q7x9+1J4r8I+Nb/AMNQWMMkVtJsRmOCeAfT3rkY/wBsHxubtbFtOg3yEBcH16dq9c+K3wS8O6//AGl4gici7J3dOcgdK+ZNF+C3iZtKj1yCPfLFMrKGHYGvmZUcxlX92T5b+QpSlJpRgfW3g343+I9UvF0nxJaJbXMg3RgHgjv2qPU/jxq2na9c6U0MJWHGDu5o8TeGJ9X8Mx3q4t7+GLhkAzwOmRXxX8O0v73x/c6ffW73Mrkh2YnAx0zX3k8LTlhrxdpW/E9ylgadSnduzPqLxp+0/rmh6bb3WkWkUsjH96GPQe3Febj9r34k3di95p2l25CEcs3AGecnFfMXxFvdb0DxPc3GsQmK3sG3PGc7SK3tF1fSvHfgO+gsMW00qEbE6ke1ejlVPDUMLKpjaak13OiGSOmlUm7o+ttT/a/j0Z7aC9gQyTQqx2nI3nqBiqt/+11qN/8AY9O8KWsct7LKomVyQqoepzjrX5aJa+KNHv4rW+RiLV9yM2SSDxg5r6y0LwjqOkfC5r94VlvL+4Myup+dVbtkdAK8J5jhcRTn7KnZrbUzrUsP8MYn1r4u/aU8V6Myx6VYxTHock4z7cVmaJ+1H4ruE/4nFhHEQeoJ6flXgE99NDoU8MBNzcLZtyRnY+OufWvl3RvG3jddFl0XyzdSMx3yPxtHsa2yTFYWrh3TrwvPuFGhR2lE/Suz/al1vWNSmtdItYXjhOCSef5UzUP2sNS8Pysuu6fhW+4yAkH8QK+O/hPpcljcCa6+5MPmfP8AFXvetz2nhzRRY30sdw138yIyqxTHOPWvexeGwrwqjRglPuaTwdJu8YmHr37efiew11NPstLQxHqzZHH5Vy+qf8FBvHMGoi1stKtynqWP+FeeePNEguwmrwhPMmyDHgAqBXyR4m066huZFA5B6jrXwfEEatBtUXY8DHR5KjjA/SfS/wBtr4h6gocaZbYPo3/1q7CL9rrxzt3zadAPxP8AhX5teALm4jVYmycHvXu99coln74r83nmuYRqcvtnY87nnfc/QP4EftB+Jfil4vu/D+rWkUEdvGHVkOSevtXtXxp8d3/w3+G+p+MdMiWaeyiLqj9CRXwT+xXI8nxM1Ldk/wCjj+Zr69/auBb4Ea8qKzHyDgICx/IV+gZNVqV8MpVJXeup1Rvy6n5/j/gon8S8K/8AY9rtb/aOf5U2X/gor8SyBLDo9rtJwPmPX8q/OjRzrus+L4/COmWz/abggKpBBA7nBr3Pxl8Gtf8ACseywAmmWIO6ynYAT6dK6nGpTf7yRzL2jla59Rn/AIKKfE2LifR7XPsx/wAKaf8Agot8Tsb00a1I/wB4/wCFfnJ4el1LV9Ybw75YN2rdjn8KkGppHeSwS7kMDGN9wwA1KrKc/wCGzWrGpHqfon/w8b+JcmBDo1sSPvfMeP0qH/h498S1JV9Htf8Avo/4V+erSeXF5ltIJg7YYg9Kmfy4HWOH5wy5NZuVTuQ5y7n6Cn/go58T+o0a1/76P+FR/wDDx74oDro1r/30f/ia/PjHeojU+2mt2Q6ku5+hB/4KRfFD/oC2n/fR/wDiajP/AAUk+KPbRbT/AL6P/wATX56nkcVA3tV/WH3LU5dz9Dz/AMFJviiP+YLa/wDfR/wqM/8ABSf4o9tGtf8Avo//ABNfnkR3qJqPbS7h7SXc/RL/AIeUfFLH/IFtP++j/hTP+HlPxS/6Atp/30f8K/O45xULU/aS7h7SXc/RM/8ABSz4pj/mC2n/AH2f/iail/4KX/FRELDRbTgZ+8f/AImvzs4zVWfBif6Gj2ku4c8u5/Tp8BfiJqnxU+FWleO9XhWC4v497xpyo+leT/HP9oHxJ8MPFEWh6TaRTxvEJCznB6kentW1+xtz+zp4cH/TCvnL9rmPPxDt/wDr3H8zU4+pOFHmg7M0qTahdGgv7Yvjg8f2bB/30f8ACrkH7XfjiXrp0H5//Wr5EiwOtatrNGnFeLHG1/52cqqy7n1g/wC1t4zRc/2fB+Z/wqrJ+174zjTjT4CT05P+FfL10yFNwNZG6aSQKkeRW8cdUjrKRftJPZn18n7WXjyTaRp0GD/tf/WqrdftdePoJCRpkBQf7Rz/ACr5o8OadfX9w1vsIPavbdD+Hs13GFulC7Tk59Kl4qvN3hIOefc6VP2wfHs04t4NJicsBggnGfyrTsv2svHcr+XdaXGhJwBk9fyrTsz4N8PX8UBRAsQBbKjk/lXscdv4H1qwF9b2cLleQVA6mu7D4qd1GbN6bk92eMP+1Z4vXMf2CAOvUFv/AK1UW/a28ZKhZtPgB9N3/wBavNfit4AuNBvX8RaajSxznOzGAK8Ru2jm2y52SY+5W1WtP7LJqSktmfSt/wDtmeO7Y/u9Ntz/AMCP+Fc+/wC3F8QlPGl25/4Ef8K+bbq2MoyRmsl9PAbJFZRq1X9ozjKfc+p0/bg+Irf8wq3/AO+j/hVxP22viA339Mtx/wACP+FfK8VpGFGVqCa3AzgUqlaqvtCnUktmfXA/bT8fNwumW+f94/4V0Okfte+Nr+Uxy6dCvy7shj6gelfEFufnCkV2miAi7OOmw/zFKnXqPeQo1Jdz/9D9QvHHxa0yXxhc+D9Eu457lPkmRSCUPoR9Ks6R4u8PG2XwpeXiJPsO/LYKmvBfHvhHRW+I2r+IvCQ+z34nHn72A8xto6c+ldBo+g+HH0W81bxjKsF0ysFIOSDj/ZzXqpQpU7yme9RpXgmzt9e+Nfw/8GeE7qxOrQ3d7CjKiBwTk8Cvzs8A/tA+LLTxVfy2ku2WST5lX0J45rmfFngC8nubuWGffaO/yy89z6df0rj9M8M3HhbW4NNuF8uK4IL3HXd6dMn868qOcxoVLzjdExqQjLlep9x+ONSh+Kui/wBg+IoxHNOgDy+nHGa8FsNHv/AWmyrpkvm3MORE688Vu69ea/4T1mwn8O2T328KJYlK5cdsZI7Vu/2Tq+vMsNrB5LOdzbiBt9uTXLmWcVq9enGjH3Hb8x4bE15zdNr3Vt6HkegavrWvak0HiBWUycuzDh/au/Hio+E4J008FFZDGAe30qbVtD1a91a10K1ZLdy23d1yfXIrzrxGttaa1LoN/OJmt2xJjPUdajiOhUwyhUwkbrqY5lh5KN4bnrngfxxrFtoNxa3URkWcE7fXNeXX+j/ETxJeOlhpMrWIb5mRT/MU/VNWuRpUUXhyJvl6sPSpNG8Q+PwqyabfJbQxkFoGPzP+XFYYalKhTWPmrJnJCc6dKDluQyaV8RLHZY2SSWsUP3VINZllqHjVNfXVL13mnhPAxnNep3PxCh1D59YP2R1GDkFs/wDfOa811b4ieHPB2sWuqWc4uw2dwAYfzFfTYHMIuCxctj1IYpKldmx4i1e0iR9Y1Q7bqcYKtwRj2NeHXmrafM0jBwSxrO+IHxIPjbVfOsYiiHpiuPg0q+2ebIpUHnnFfOcQYz6xiJcmx8xisQqk3M9T8PahbWu5lYZrozr4mmCluK8Dmvbix68VoaZrZknXca+ExOEkm5WMITP1R/Yvig/4TO/uYyCxgH9a+4vjD4ouvBvw81LxHZxmWS1iLhAu4nHUYr89P2FNSN145v4j0EA/rX23+034h1Dwt8F9a1zTMebDFnBGQRnkfiK+y4dvHCrm7s7IvQ/IvTLjWviF8Qb/APaCsnTTZdOT9zbnCtI3fC1t6FYj48pN4h+MerRuiyFY4XkCFQPbIrxbRfDg8f6/qXi/Q9ZXw/b2MKu8M+7O5uDhQCTk9OK7P4I/Drwpr1xfL4xvfmDFgpJQsD/EA2ODXoZo5Sp88TfDJSke6SfCH4P+FbP7f4YlhtpohuW4Vg2D655r5s0L4Z6J8RPiWfDU+ureWrMZSi9Wb0OK+pdT1b4TfDrTzpU1wxAGV2o8oPsSisK+N/g98fPCPww+O114l1+BmsLzMYZo2XYCc7sEA15mTTnJtM68bBJHH6j8Ih4C+Mlz8P8AxXP/AGBYXrbraaY7FYHjgmqXx10XSvgjrFjo9jqMWsQXEYZriNwwXPYkGof22fjX4S+NfxFt9X8HO0lpZQiMSgFckHPcA14t8MvhR4l+N/i218NXc8sETplJJUcqfxxivcnTTPIcT0ewvhqtkdQskdoFxmTadgz79Ker+Zgqcp/eHIr6m8YeDZfgL8IrrwL4xEV9a3jKouomXMJ7ZGd35CvgcHxZ4fvFhVWuNMPzQzhSEYHtk/1rmlQuQ4nqWCx2r19KgkYAZXnHX2q7b6T4hewt9RNpJFHeZ8tsbt2Ov3c1UEgFssFod5z+8bp/Pmud0GiCPquRUJ61KwA4zn6VGcYzUPQCNmwKh3bjipJBxUK1QDGYAmqsu4xvx2NX/JJO496juGVIHA/un+VAH9F37G3H7OvhvP8Azwr53/a3yPiBb4H/AC7j+Zr6I/Y3bd+zr4cP/TCvnP8Aa5uBF8Qbcf8ATuP5mrx0b0UvQ1r/AMNHym0oTluKrfb40bLNgetZ1/PvBCGuXlMrOEwW5zgV89ONjjR6BbTvdThIjuyf0rudMtEO64VwREQCPWvJrK6H2lCqmMgbcfWvTNKksdMvFSaNpZMZwDgH865KrbVkdNHWR7joUvh/StUtZbzEUUgPmSDovHf0ryf4r+OZ7fxF9j8EX63Zk+6qsMiuN1b4oaToMFzZaGDdXjqxEZG3GOvLYHH1r5An8Xt4vSW/tY3hu0dhNcKeEx04HJ/AGvcy+C5NTSpofT2ofHOXSkfw/r7+ffsMDvtPpS/Dr9pa78E3I0+6fzbZnyeeBX50R+NNQtbqaOC4+2srMGm2kHr/ALQBqz4GXX/G/imDw9Zxs/mSZLDgKOuSTSxFPknzroOE7H7j638Y4fiP4LM/hxxNGo/eYxha+cEc3PzyDkHr610+jy+GfDvhyPQE+RYkCyIBgmQfxZ7iuYOsJLi3tsLCp4Hes44nmZE5pll7UBRmoWtgcCrTzqwABqORgMMe1enS1jcFaxj3Maxnk1ls6HIqbUZQScGueMx3E5rmryRhULyRgS767bQXiN0f9w/zFefifJz6VuaDdOL1h/sH+YrljVsyYH//0fpD42JrNj8S9ViAeKOSTzAw44wBXimneL7rxLrA0W3lcIg5kY/LketfQvx58b2V38SNR8M3LxtcKNqqvDBCOprwXwr4U0vTSJNP3SPM2Aeoya/NcwxKjXfsr79/MlYj2MrUz06w8D6/rtoZLGNZtv38fdB7GtHXfhk9l4Lmv9QZDqNuRsQ9BnpzW3qHiLxV8L9An02CH/Sbtdwz2A5zzXjX/CwvE3xR0VdKimSC4iY5B+9Jj3r9HyLEUsRQUJ7n02CkmlUW5JHb+LNEVdRuZYp7m1UOqjJwD61zviTxw66jbvLPi7c/cjOBkjuK928L6R4b03wleXXi25MV3Omx9x6bRjjPrX5I/GvxrdaL8UE1nQllhW2cY8xsowB649693MZxo04woqx6FSdW3NdfcfpDofxN8OeF7Jr3xjDKblCXjAGT9a+bvEvxF8M+J/EU2uaMj28UrESNJ/ertNQ8c6Z8QvBsGsPNaxztAqNGQMnHUivmHVNd8Hac/wDZWGueP+WRwA3oa0w2NSw7hWkrPyMqF6jtNXPur4fanoujaLPdauv2uKaIrHs7MRwea8F8TeITY3u+xJjOT944715/a+LPHRtoNPsrb7NbFcKZByRXJax4J8W6zqguZNQQL1K8185nWYYF4T6r7Vemoq2RYzGTcaFBtdHdHpi/Fmz0ycpqO10YYORk5rzHxB4i068MmoQtuVslU780n/Crb/ULofbJQwTjvWynwIuJW81LkKvpzXyNPOcPToLCSqrk9H+Z2LgTM3C1SDS+X+ZwvgvUrq/1iO0t4PmdsDceg9a7L4reKp/Bl2ulwKbj5AxeMZUE9RXPa/8ABXxdpQ/tPw/csZY+gTOcd8VueCvEs2p28vhXX7VJbqNcbnGWJP1rswmMwtV80XdHh4nhSWHk6cou6PP7a+t9c8Ly+IrrVY7eZCcWr/fOKqW2q674d0tPEWq2p+zu2F2nJPvXL+N/hxqvhfxCV1GPyIpTvO70PPFbXi2TTtVSy0Xwzds6IoLBzld1aYmdGckktDg/sVQeqP1C/wCCbXxL0rxl8SdUsLKF43itlLbhj1r9FP2wbm6s/wBn3xDd2SCSWKAuqnoSDnmvy6/4Jh6T/ZXxf1eOZQJDaKSV6Z5r9Uf2sk8z4CeIY8E7rdl4688V6+Cp04Ukqexy4igqL5Efg/b65D8SdPtvGHh2ymtr2yZF1Rs7YWQH5do781teONX0PxX8XrXfdPDZR2kQcwDyxkDHPNcnZ+IZPC3gdbe2wsenSCQRpwbgscYf1A967vxN8OvH/jbw3afHaa0hi0zasdxBbLsZEX+JscV2qcZr2b2OKFR03eJ9U/Bj4nfAjwo914d12Zb/AMsFhLOofGe3Jr4x/bH8U+DviT41toPhJapMpUKxiTaufTiuK+LOpfBHTZNO0z4fG4lu7kK1zJuyORkrjrX0D8AbX4cG0aK1aK4vQdxUgblrysXfAp1MOevQ/wBpcYVD4s8PfBb4grqFsbzS2e0EgaYA/MV744r9W/Bv7QPgL4caFDpd14Qnt4rCHAnCKXO0etaE2paPpiuzleRwBjIrzjV/ib8PUT+zdTuIi5OCkmOR3FfIUuMK8qnKqZ9TPhSnFXlUPhn4lxfEL9obxbe+IvDayx6JPLlI5WIxzxla+uP+EE1i7+AyfDO/hgW8ABScDkD69a4i6tpLG4m8RfDadWizl7X+Ej/ZHSvQ/C3xa0TUljsNTU2l+ePKkPStcz4kx0YKeEj+CJw3DmDlLlqz/M848Kan8W/hJYQaHf2dvrFlaKRHtGWGR6mvAdMig8QeIb83d0mm+W3mCOQffZj90V+jyT27gTMElLD5gteUeNfg14W8UW5EMQguWyQyjBz26e9cuA47bko42ndd1oVjuC6TjfB1LnzB4j8F694aiS51VFEUoDK6NuBB6GuMZlGOeTXV+JfDHxL+HmnXdjqsrarZtxk5LRoOwJ6Vyx1bwtqujWdzo6ugJEbROcyB+7Z9M19hSxeHxkPaYeZ8Vi8rr4OTVaNyu5VhhaTymCFz2q/KRCGQpt96zFLKpfOR6Vu1CK+O557mn8KG+cSgAqCbmJ8+hqXcjjKjFQSBvLckdjWbqX0jC4kn1P6OP2N8f8M6+G8f88K+ZP2w2VfH9uT1+zj+Zr6a/Y2yf2dPDef+eFfKf7ZdwsfxLtlzz9mXj8TWuNb9jppsb1VeGh8lvG33qiM32KUTjA+ta0Vpf6iP9GiJx7VdHh7WLhBFLbEgH05r56pLucfKy3pMsUV7FdatASsn3Nvc13FxZS38skdsvlzjAUkcCtvw9Y6K+lNpV8C8kI3+b2jI7GvKdZ8farbtKNKh+0ISV8xe+OAa4pSs7x3OqmktTzXxZ4eMus3Gm31xGiRgmVk4Y8cgGvkqbVY/DviMv4Uk/wBGJZcS9M9y3rX1ZdaBN4yfy1jmgu2yZJSflYelcZqHwt0rU/L0qKzkV4idzLxz6mvTwmJmlqypcrPmCEzarfG10y2E2ovISxQfuyCa+3vgR8NP+EP0u68S61Btmu08tADko/r0rD8F+GtO8FH7dHZF7tW2gkZzg4r1iPxDHoaCBVdJbhtxjl5UZ9BV18U5rkZk2ktDd10yyRxSPtIQYbHU1yFvP512ZXPI4Udsf41vXmlaxPb/ANoFGKnng8YrmopGEpDbc+neuOPLF6GbaZ2ttJvAyat3ciGD5etc7ayttq2ZXdMGvSp4iXLYPaWWhhXztWHJIVzWzqB71zrkHNZTnzbmTk3uaUL5Tca3dBIe+bH/ADzP8xXIRzY+TNdD4f3/AG5v+uf9RWFlcIto/9L2v48eCbzUfjFqF5pkTyXU0wVWUcgEDivTvC/gG2+Dukjxh4xdru427obQAcemeetfaXiHwpp0GrXF5pUKS39wd2+TkLxjivnLxxpeiWJf/hYt3LLJ/dgYAD8wa+GxeFpUpyc+rZrKhGSuj498dfEnW/iNdyxGFraV8rGRn5V6H9K8T8QWOq+C47U2Mm3y9zeYvUk19Vt4p+CPhy2vr67E7ARsI2dlyD+Vfm348+LF5rV/9i8MsZoC7DMnOATx0xV5bVnh588djfA0605ckDvjr+teN7ee21bVlshb/Nl2Pz98V594z0uS58Et4onntrz7QTCYQcyqF/iryq4tH04S3uvzvIyAsEU4U59a5Dw7q+uanqp0/K+TncqjPT0619LDHyxTs2ehisNXpK8pHV6Vq0OgaE9nqnmRSsMqTwoU9MV7BoN94a0qzgvbG3TUGmiBfGCVJ6n6186+P9Sh1G4FkzFjGACvfPtS+Fv7Y0qwE+kSMXJ+43OBWGYZdOrDljP8zvyfMPZu01c+lZvHmXSFbObanA+ldlpfjC3ZRK1i+fevLvBPxDgvnNhrUSLMp2ggYBr3f+zbS4t1uInUAjOFr4XH4b2MnTnG9utz9NwdWu6ca1GaV+ljPbx7pUM22SEozche9On+Jl1A3lWunuw9eaydSs7GR1RoMkfx+lLpXiFLKYadqCL5J48zHP51xRoUJLWJ6DxWIkrVqiLsfjPVtXfyrmP7JH0JOc1wOveCIINROtWNw6SvyGA/+vXs0um6drEQjiIZT91gen1rjvEWk3+jrssD9owOQ/P5Yp0J+yly09DnxGGpyhzt3PJPFmi+I7zTf7U1GVruNB1fkgVJofhfwHqPw8k1R7v7LqUb5Ve9RXXxIu3jPhjyl8yQlWVhyfpWL4B8G6H4n1q+0nxRPLalYy0KRsFLvn7vINfYYWhzw5mfAZnXp0mz7w/4Jh3l3/wuDWLGYhwtop8w9Tya/Vb9qz/khOvf9cDX5k/8E5bLUrX41axb31p9kS2tFijOOXAJwTX6ZftXnb8B9fJ/54GvfwWlDTzPiMfWVWbnE/nwlt4blAs2SPStHRfEes+E3/4nmsTHw6vM1mp++PTGapxFhFvA4FczBY6d4g12Gz112FmzjzApwcfrSoTanqeQnc9p+C+r+FfFHxZnbwh4cjmtbpNsAuhgKx79DXl9v8OfEbfGu98PQ3g00SSMc2/Qt/cHSvpPU/D/AIzj0weKvhpYppmmabEFEu0722jG7OcfpXgHiPxprvgCaz+IqTWt9O8wJRgS6sf4jyK9LF04zhqdlKs4ao7bwdY3934g13Q9HubiS90SJpZTdfcbaOg5NdP8JNZ8EfFLRH1vxR4duJru1l2s1su5W2nHXisrxj4dgj8OR/E3whPeTajr4B1AQkeUEbqoG3I/E1798Ovib4a+Efw/tNP8K6DcOkxXe0i7mLHrnAFfNTyyKfPCJ61PHzqwtKTPmnxnH418Q/EOD7H4evNM0OBgg+zL85B4yRxWp8a/hV8L/Acel3+g6neSa3qY3EyrgREY4bk19jzftT20Ez20Xhqd2GAwEeef8a8o8TfFf4b+MbhhrfhK7Ep4MrD/AFZ9elddOmnHlcPwOVVrS1mc74X/AGYPHfiPwdbeKfDvijM8oyyMeOuPWvb7L4VeKPA3hm61TxrM2oukX+jrajLM/wClfMOr/EXXfhDcWuofAt7jV5pSTLZXf7yJPZQu0j869b0X9u9LHRYJfiPoktreM2HVFxGCfQHNYYjLKlVc1KguX0R10sVUofw6j+88m0Pxvr+oa7No3xb046Rpl23l2882cHn+Liur+KH7HsreGH8ReBbxJlkj8xBEOoPORivpKbxn8C/2ifBIfxHJHFGSRGMhXRscEH1rwvSPip4p+CUsvgKO5h1G3mbFhNJllVT90PyOlcdLCOk/9mhaRrUx9etpI/OjWdb8W+CNQg8LeL9PljlchEZhy3YGu1i0u/a7Wzs4WaUxGVl4+VR1P0r6x/ai1zRvEOkaVPFaQXOu2oSaeZB+7G3BIxnOPxr4W8fSeJvCni6w1XU9SBbV7c4FpwqRkj5WzmvfpwnVVpwsePVoQhqX9R8Q2GnxebuEhzjC1cFzPe2Pnw4CupP04ryzU/Ckmm6zBLDOZYJB5h3Hp7Gvr34e/BzWfiNobXGiOsaFche+MVyYmrh8LrWnYxhg6lfSmj91f2NFkX9nPw2JDk+RXiX7Tng1Nd+Jdteyn5VtwCPxNfSf7Mnhy58I/BTRPD9ywaS2h2kivHv2htQSw8YLcyA/urcN9eTW2Jqxlh1Ui7p2HUg6a5Jbo8v0Hwzoej2PnsFYgcL3NVby3tvEGoHR9KKxkLufb1GO1cVPrd1e+HpdbsHwxJBU9FHt71yj+KNT8E+HzfaZF591d8ea3JUHrnFfL16l3oZcps+JNVazhfwpbRxrLJ8rSDrjuTXktppFl4cmfR4JPtUTnIkHQV39jbu2lDxDZHzr6VS0/wBo5QDvtAx/OvLBba1d3Z1JV8u0Y/KF6H1xSpUuZmcpdEdtFPGENrEgGzoV60zekLfawoWTp9azdttDbpLHIVdjhs9/pWZevNCdjEn3rr5LGLbJ0vlg1Rb541kCn7p6Vg6iseq3RvLlfnByvtUyO7H5qcn7xiCOlZTpPczbZoR6pqElt9l8whBWMLNRLvzlquw/K2Gq0oRm4HNYakDrSIgYNX3jwKms4QeTU1ygANddO9gOM1LANchPMFJrrdWBAOK4C4WQyGtGxirdlZRmu68Nzq94xz/yz/qK87EZyDXW+HHYXzD/AKZn+YqObUaep//T+5Pih498d6T4z1K40e9KW1vME2gAnoPUGvkH4y/GNtHsn1HxLKXmkHy5wCT9Kwv2s/jYnhH4i+INM01JEmE+wuAdoJUcg9M18ALqviPx5KreJbmW8ROFaQk5H418FjsM6tRyqvRNnZgMDVqztHY0Na8aa/45u5I7iUrak8KvAI/CpbWzt7C2ZIIliA5z3P51tW+lW1hF91UCdMd65y5d9SujkkIvaqjW9z2cNj9CweVU8LFVKa97zOG8Wz362Ml1E2/fwQ1Y2jWNzptxFqVoxXaN34mtPx5cW6CCxh4Z2GQPrXYW+lp/Y12qr80UAZfWvUhW9gqa7nk4mjLEqo3urnnGq2MH25dWdsyFtxJr2jw/a6aLODxBaJmBiFn/AK4ryDw/oNx4ntHuATmE9D1r1z4b6jbzXT+HJseWOx9aWcqdOKqUpO3qcOQ8kpuFRane+Mvg8LiwTxR4RU+Q6b8gnIryHS/H/ivwfP8AZdRdpIR1DjpX238O7+awU6Tf/wDHsT8u7oB6V1fjf4PeFfGVi4gtYkdhkSKor5dZtFP2eLV4/ifa08uqzfPhJuMut2+X5I+cPDHxB8O+J7QeY+xm6qfWuzbTNJv4jE8YZD0Jr5f8ZfC/WPB2qSQ2YaOJTkMvH8qpeGviTr+g3IsdTkeeDOPmOcV0VMup14+0wUvxNYZ1Uw8vYY+N/NLQ+kUtNZ0F2GmSExHnYefypsfxF0/y3N7+7li+Uhqj0/XdO1fTvtMEwQtg9cY9a8Q10QeMvGp0LSGDSIB8x4DH61ngcuc6nLilsLM86o0qVqMrotwr4dv9fvNV11ZILmNC9ow4y3b616t8JPDEHjGdR4htzDJDJ5sd6MrJn09MfhVv4VfD7VPG/iR5PEsWVsRtUuODt471794l87RpBpumwiGNRgmMY/lXrYvHQwv7nDv7z8pzDHVMQ20z7b/ZNbSJPHl4tuqvcRW6o038TAZ64r6N/atUN8CNfB/54Gvi39hmKcfEXU5ncsDAOvrk19oftXnHwH1/H/PA172Tzc8LzS8zzKalye+fz4xNK0RgQcEVx8dtHZawjagSse7nFdkmFjDdDWfcWkN25km7VtHR3RhE9p8O/FPx3r3iiw8BXGpPa+FrjbFOuxFBTofm25/WvAvib4Htpbe80Hwjbm5Ed3lbglm/d5+uK0F8VSeF4YLy/tBqvlyf8e7jKhc8Ejt+Ne1fCfRPEWo/FmPRNTEOn2F/D9pEUbLsZD/DwcfhXoubnB3NYK7SPtP4DWfg7wd8IrLRtWeF55Ig7xMQWJ+hrm/FHxh8LaDcR+HbPTpWQHzM+XnAB6DivZo/hd8MNCu4dSuLSBZAQFdwAAfxrg/Ffx8+E/hm6vtL8k3l/bAqmyIsuR2BAIrwcNO8uW57VWbpK0EjNu/2jfh/YWsc8GmNbmd1DSSRgDOe5IxXk+veLvi38RfEOp6J8MbK2ks5lXdK8SdwfunFfPms/HHSvjh4ustE8ZQPomiWjb7hFjKLMV5G4YGa+x9J/an/AGePh/Zx6VpEyw2wUKBGuMY+nrXpVaHIuaB59+d3kdj+z78C7X4e+HRrHi6MXGuTFuTyFJPp0rr7v4F+B/F8iHxrZR3fluWC/dHP+7ivGtX/AG5/gulrJcWN46ugJTg5Y18xXH7R/wC0B+0FM+i/C2zl0oWz5adMxkpn7wPGTXJiHiJfFNr0bRdOiofCfb+s/Br9m/wXYyWF5YQ6fty4XzpFPPfl6+KPGA+Gy/EHTW0MSXthDMDNHuZlKA9jnOfxr2fRf2VNQ1me28b/ABe1241qWNczR3chZeB0O44rlvFPhjSfEVpd2Hw0sYtHsbJmFvPEAjNOOuMYJGamjiI0uvzOhwlLqfLL6FqeueLfEV2l41vpYeRoYWP/ACzycICec4968+8f+CNc0vTrTW3tomQRHyGySqr/ALRJ4NewXHgrxVoWvvoeoSC8lu7UyESsPknI+8M9CDXGeAvDeqeLXn8G+Jb6YiG4Bkg3ExsB3PaumpmdPDUnUnc5/q3tpqKMz4UeA7nxdpLX2qwrNCmWfGfvDsCD0r6P8J65d+C57d/D5ktbeTIuUxkr7LntX0t4M+DGg+CdEV/D22aKTBK9gfarupaHb28E2s3tohNscoAozivyLM+Jli60oSV0fpGTZXRw1NTktT9K/gdfRal8MdLvYd22SPPzdfxr5f8A2p75rfxNAJ1C26RDe3cjJ4r6e+B2qW2s/DDS9Qsl2RvHwMYxivj/APavn02Hx5G+sTCOAWwO1jgHk1+mtSeXUvZJvSP5H5zmv8ery/zP8z5L8Wa3feGbJ5oCY7edDJDGo+U5GQW615FH8WbmzCWl1OXhkjLsrAYD9scV5D4/+Oyapq1zoeky7khVoo1z8pxwK8R03x/PH4jsNOv7YSec4Qq44DH0J4xXlU8HOWtRWOR0pWuj9LvCvjO61rw2Le7A2yDGRxx6VqSXmqWVrDYxRj7IoPlrjt/M18sfG3xf4j+EOmWFtosYZtRiBAQ5wT0xj+leV+F9W+O+uQRyG9um2gkIzNhc9hntXsU6OHox56kr+XUKeX1qvwrU/QWWx0XVdFsjFGyT5J5yMmsybw9rZa4uJEBgtkByK+fvC/xK+KGg2g0XxRZRSCI5SWQjIroNW+Nvj/VLqPTrS3gt7FxiUxsvzY9cVrGhTfv3906JZbKEb1Nz03Tre0vtPOowuGUEhgOo/Cp7jT/sUu0jll3V8wa38cbXUG07wf4CtY7fWjcFbgjCq65/iPTGKdqPxHv/ABjLcaDqWoto8mmplmhbAYr1AI61dbD06sH9X09Tmp4VSkoHtmpavYabP5d1MsZxnk1iSePdAsr63tJbhSblgqnI4zxXy5ceK/BWrXH2XW557khdvm7WY/nXUaS/wYs/Lvb3zZY4edzo3BHuRXkOjGm/3qPVp8Nyq6qvFetz3qX41eC9J8SSeFp5t08cnlkqRjPrT9b+Lfhyz1iPQp96NMwVJT9w7vevmvxdbfB/XrOW/wDD0bw3c5ykscZGW+oFYM/hr4h6h4DOl38SXixENFKxDSRgencV00XQbSlew6vDkqUW/aKXofQnjf4oeH/CeuTaFqDmR4VVt6cqdwzwa4Ww+M3g7V7tbS3YhpDgZ9a8X0bUdQ8U6Kvw7l02I3jnC3cmBIMH+8ayvFXgi08EOTAqyTxgE55Ib1H411Sw1Gc7U72OFZYor94fWs94EkCDhiAcd8HvXT+HJyL1mPIMZ5/EV83X3jjT7z4a6SY2dvEMcpF26gkmH+EEjrXvfgi7WcRyDO1oM498iuXG4P2VnA82vQcZWgf/1PNP2/vGV/ffGe68M28caWyzASBQMscDknrXgVobTTkjTKgKoGO5zXqv7XGmWuq/tJ64ujkvIlwDJg5wdq8V5aNGt/7ThFwmZCMsfQ18bmVeMm4o/RuH6Hsoc0luY2sRXUsX2iQssfaqVtcKbfdjGO9dJ4suUtQln1V+BiuC1aePStAlmlO0kfLXLgabm9TvxWIdKpzPY4WAjxH4/SDaSqkcdQMV9MWNtD/alxZKmQ0OCK8V+DGlXN5eT6wUJVuVYjuK9ntNSRfFz3I/1cqhB9RWuZy59I/ZObB2Upzl9rU8H0dtR0LxHf2hHlo5OB04rK8MXd1D41EkJIQPuc+gzXW/GbTNUtdcTXrAHytoDYrzTwVdy3WuTbzjzUwM+pr24yjicDrufJ8ssNmC7M/V+20i21DwTHdnAjIDqw61Fpmr6no8cbLmazP3mzyDWR8IdZOq/Di50fdvlgjK4HqBTPhleXl3Y3lhqanbE+0A+9flVak6cpupsmfruHqKvCMdvM6DxHPomslJ7naUcYwQK+f/AIhfB22KnUtEUNuGdqjI/Sva49Itb6/uNPvPlYf6tfaqlhcy6Jff2RduVgzwT6V0YTFVMM/aUnt0JxmDjiYewkt+p8HapoGraATc3e6FOQRmtz4d2sk3jbSdOmgcRXcnMuDhhns3T9a91+P2iaNNZi4spAjTYyM9ab8KtRvbXQ4NP1iNXtbD57WQjox619vQxqxOEWKas3c/KOIsCsBN4aE7pH33YNp9pZpbWkaR7Rs4wDgcc1wHiixhgDzBg4rzRPiDC7geaCW6tmquteMIpLcxb8k+9fHzpVJVeaR8XCs0fWX7EF9FL8S9Tto+0A/ma+yf2sD/AMWI18/9MDXwT+wOZpPizq07fdNsv9a+9f2sf+SEa/8A9cDX6Tk3+6fedcJ88G2fz3oSygUDIbAOB3NIn3RTsK3yt0PWtFI5Uz0nwD4vTwrbmKx0VdVudQbyZUccFDxyTnH1rhNE8JLoPxFvvFXjO4ewlsENzbWkDGUcEYQlTwOacnie/wDDuiaj/ZBJMsJXPccdjUmg39j8NfAF749ub0alqOtwGy+zPgvHv53AH6V3U3eLRrGVmmfdfw/8Jal8RIbfxp4h1Fr6wvEyLNT/AKvtyR0Ne8tZ/DT4XWAnu4oIIHHPmKrMT7Z5NfmP+zl8XPGvwTtWT4iwPDo16DJDO/C7j0Ga+q/CnhbVfjf4gj8Z+K42Ojo4e1j5xIByrfSvDlSlRnqezzKqjL8WfDW7/aU8aW9xcWg0rRtPfdHIqbDcKPUADtU/x10X9nX4Q+FHih02CfV3jCQQrhmzjGSByK+hPi58TrH4V+DJdTmCLMieVbRcA5PAwK+UPgJ8C7v4g6vN8UviqrSXV6/mW4lH3VHTAr1frK5TCdJx2PFv2Xf2XpPHvir/AIWF8QrNrewD74bd1wG5yODX6ma1rHgj4aaLca5rX2bTbazj+RBtVnx90AcE1l+PPHvhn4WeE5bzWbmO2SJNqhiBjA4wK/PXwp4K8eftPePofGvxHWWPwxYy+ZCj5VZgOmK4pYp1NGbU4npXhXx38Rv2i/Fn9pXlpLpPhi1kJO7KCdB0POOtdT8RvH2g3fiGLSLKFbXRdIUGOYfLvkXquO/1ru/iv8WfCPhHQz4S0l4xBGmzCEDy1A4z61+ZXizxTqfiy6Cyk/YYn/dY4BP978amOHVTUVSsoGl8R/Gkvj7xU+tLG1t5PyIQSN4Hf8a95/ZyZLd5mvbZZIZB88h5OfrXzVo1our38NmSB5riP8T3r9APhn8PB4Stv7JdvMilG9n7D2r5bi7MY0oeySPX4aoKtU5pHSaPd6xo95M/h8NLbO+PLJ4XPpXp9rrryWr2iQtNd4+6y8c9a5v+0dHMctnozAXEAOFHUmm2Gu6vo2hnW9TOZZDtCdxngV+YLlm+ea1/E/Rq1K0eWJ+j/wAJIWt/h/p8TKEIj5Udq/JL/gqlf6Rc3+maPZXRi1FUEkiZ2/u8nnOa/Wn4Pzy3Xw9064mG1nTJFfkp/wAFEvhjf+MPi9YXtlatclrVY8L1+81f0Dls4rBUW5WXKvyPx7MFavUT7v8AM/JbQfD9lrMpvJWCRwDg55dhXW/Fe81O/wBT0SPULBbQW6BYvL6ydOpGK6rxR+z18SfCRXVbLSpTZQjzXODwB1rA8UaF4tuorDXfETNbouDAr9lHelVcXqnc1p1YJWPRdR8E6nrek2uu+JL4281ug+y27HcQO2BXRWnh/wAcWPhGTxTr2sfZWAxFEcAt6YFcf4K1rS18RrqXxC1BfLiUfZWY8Mo9Pxr1vTrJPi14ug1WfM2k2Z+Xspx3ryMRfZwf3H0mCxFOMOZbjfBXwk1bxF4fh8WeNdRYhySYnJXCjnv6180fGnXdMs9fj0jwJGwUEI+1j8xPpXtX7Qfxhkv0j8EeEfuxfI7p37Y4ryb4YfD3V/8AhMdMvPElszwSPuwQcj3NdHI8ND29V6HDUqvE1OVI8y1XwRq+hFvtpaOeaISK2cN8wzgGui8E+ArvxNYz27tJ5u3EZXJLN6E190/HvwF4dfw1N4lACSwR4iXudo6CvBP2c7PxRqN5qENiWjHkloWxnDULFqtSliKP2TKWAj7WNOTtc8VB8e/CrU4rjWLXMKH7hXII9CcV9Z+APjf8OvGOmvYeL7aGyzx5exfm/HivT0s9B+J/hC68K35U3dvlXZvveYOpr4tk+DdtdSXKXNx9lWzkMG4j77Dvmsaco4n+K7M2nReHdoRcvRXPqC+0JfDtsviPwCYNTgcgiyXaSqdz61Uuf7E120M9pOdJ1GQfNG/C59BnAr5QjsviH8ItXh1aASJBnAk5KOn8uRXuh+KPw88d6DO3id0ivEQ+V2JaongbSXIzppyp8jnN8tuj0PnD4ganqGl63LaE5uIW4mj/AJ5FdT4HkbXfEVlLrqS3EbKQWdTsYkEDnp1rO8FfDLxF498T2+j6YzzC7YkAKT8ueOfpX6caf8D7zwr4Pt/D9ygc24BQgDIPevcoU1RjztnzuPx6n8B8QeHPh/e+H9alulkHku5JRhn5T2r2vw4my/eKEDaEJ3fiOK6nxbokWlX6WefmI5rE8P2rQ6g8fbYf5ivExePlVlaKPEVd31P/1eC/aEtLbSvj14rv5Rw91uLenyLXh2jSXFzczahGwkhmJKn0FdP+194tvbL47eKdN8phGbwKT65Ra8uTxdpGnaAlpZPsmCYIavgcTga3tJStuz9NwWMpShGMna0V+Rm6jcf2jrT20g4iPy15j8RL8XLx6Yp+U8V1uj6iGtZNQkOWrz+4tj4g8TxRRnjdmvTw1N0VzSOXH436xSUFbex7v8NryHwx4TSzuRskjBY/Q1VvN9pZx34PMcm8H1zTFsI7rUjYBsBFAb8BWxpbw6xaNauOEJGT3xXn1VaUpLW510KLlGMZ6cqt/wAOaniW3XxD4UaZjlWTJ/8A1V8s+FNIvYPFCttKQIfvewr6RstYhsbOeLUW2hflVfarOm+CNSvbQajawjy5TkH2Nb4HFOjFwktD5POp1Pa80Eep/s567p1vrV7piXAbzSTg+v419IabbW1vezwQsp8yTe2CP6V8W2PhG/8AhZqcnjTULeWazuIzGoh5Ku3QnOOK0rDxxrHhvUEvmEga6iZ0RuSfTpmvEzHJJ1qsq1LVM+vyfP1DDwVe1z6Y8ROLHxbHrLyCOJBgk964r4geNfC1hpAhuLkSXjfMhUZPH0r5V8WfFrXPEKiynzC6k8epqHSfAmuavFHrupxu4lIK5bOB3/SunL8gcLTrdCs04pXLy0mi7Pqms+MdWS4nVpoF+VF9Pwr2DQNB1bSbNbFxhZDkrkdDXe/DT4e22kXU+q3bo8Eir5aA5IPftXXa9e6dZ3PK4C9K7MVWjTl7GmlZH5xj8W8VJymzhrPwncvFvZdgU5AJrEv7SaK9EcvQV2Nx4tt2GyE9K4i+1mC5uxzya4+d9UeOoxgfe/7BcYT4jalt6fZx/Wvt/wDayIX4Da+T/wA8DXxF+wSxb4g6ie32cf1r7e/azx/woXXyf+fc19bk6Swvu+Z0R1g7H890J3qAlTjEbgyU1NkcIZaptI0jZ9K0sjjsi3PPJJCFjAXDZ+tXb3XPC0uq2OteLbU3ENiwLog4KgelZO/I57VnX1guoWz2rdJBg/St6dVxehSLGr+K4dZutUtPFLNp/h24QzaerqWG4dFyAQPxr6R/Zu/aq8M+F/C9v4f8e+ZbCFCsD7GO5R0xgHOa+etRXVfGPheD4WaTBHDp0DCWe6m+8uOuCAeK9O8C+GrH4jz29rp8cDx+ECHF2cLFNFDyRjqWIHcV01cNHEO8jroYjk2PVfA8cH7TXxbudX8QTltI0qXMNu+VZjng7Tzx9K+/vEvi7wj8L/Dba54rnS3sLRMIgGWOOgCjntX5B6T4v8UR/EPV/wBoT4ZWhttKtpQkttKQm4ZwSqjIP51r+MviWPjt440i48d3D6bpTHKWxzukIxzgZGK8zEYOUNInoLEc+56pLoHin9qz4jp4s1mF7TwZE2YIpDgygdyp5x9a90+I/wAUdJ8JaI3hPwWwD2qbWdB8sQHGc9D+GaxfHXxe8KeFtLsPAnhi4jtJLlNkT4wiAcc45yfpXx3418RWdxD/AGB4fL+SjEySv1du+CCePSualGdR2kh16kaavA4/xNrM3iO4KMx8kEsc/wATdz9KwlOEWIn5F7U4gjjrUZPeux0pQ2PHqVHUeppaRew2ms22rzITFayiTb0JxX6B/D340aH4t26bZwNG5x8xH6V+dbf6WvlMdgAz9a+kv2fdQ06OV47vCBDw1fK8Y4CFSj7Scfe8j6jhTHKnPkkfWen6Dbt4we/nz5ZGcCtDWtV0LQYJLfWJdsdw2UBBOOePpTdJ8R6VqGp+RpEm+ROCe1cb4x8Ian4o8RCTIFtGpznP3gOO3rX5TBKT5a+lj9YoQU/flsfqx8HJYZ/h1pstu29DHwfavj/9qZY7r4gWkUaESxwqTJ2xk19U/s/211Z/CfSra7++iEcelfLv7Tl3cD4gQwJt2LbgsT2GTX7bNcuVUVDXSP5H4pnGmJrW/mf5ny7r0moeLNulm4EQRsYPR1Hb8a8/8Q/DSPWJ49J1uDfpqnLKPvAD0r0FZGu/M1K0kXcvyg+g/vVJqOoao/hlNbjdZWtplVwuSWXua86lip0lojxpSbdj5c8Vfs46XoXh++1fQ4/tDyzKbQEgbIwOQd2O9cBc614w8B6BNYxWogSf5YSrKcZ4xweM19SfFDx3o9v4eTTdQdoJL3DwhfQcHPNfIfii7jj0uewkka7nmO+3cH5RjnnNe9hZVKyu9Tvo4yeHjeOp5h4W0VNO+ItufHCeXHIWkCsckkDIzj1r6o0LVLO1vJvFQby3uiIrOAjn5OCR6ZzXxn4y8QJq6WesPuivbZgJWb7rAdhj1r6n0e6034jWmm33h1xHPpUZZ1bjnHtmuDMqM5rkm9D6jJ68Z/vJbnq/jzXLHWptPttVmV7W0Ae+2/NsUjJ4GSfwzXz18KfH48FfFoaPAjLa6jMUgBUjKHp1FdH8Lm0qK2k1DWVkuptWupbd+6qAxAzntWB4m0rxM3xm0q91OOKK2spgUMfUqOnauPDcmGi6b26nRjMNKvVjUR6v49iufDPxv+0eHVKx/ZxNcqOmCeTjvWVffEzwprPiCTRtNUXFnNGXuE2lWQ/xHBx+ldPqGpxar8eJChAjewAbf35rxO38AxPqeseLdIJjmsrpsqejxjkgeuazr06VWp+7bWiO7DyqxXIrHQeP9L1KfwDJHoA+3WONycjci+4PPFcp+zf4K8F+N9MvIfE8Y+02zjZn071qeMfE174Z8Hv4l8OMFtb4bZrV/vqW44UZAH415f8As9Xc+i3994kvWYRO42qM85+uK9nLlyYaU5S11Plc8o1Ofmufpro+reF/BOn29j4fhWFIeFl25J9ee1egaJ48sNYeQyykKq87s18E658W7SWeeG1UoCfmDY69tvNei+BPGVjrOk+Vc7oJpBySKl4j2lOzPn+Y6Lx/PbXfiB7qOTIH3cVmeHIpZLxmbuh/mKx9TuIILghD5mO9XtBuPtN8xJ24jP8AMVwYdKEtNTN6vY//1vnH9qjWIov2nfFcOqQ+fD5oCADGG2Lya+U7i0tp7OSxu1Z7uUlkdOAo9CK/XL44/Cvw34i+MfiC8dUM8k+T652rXkGh/A3T4fFEUdzAjR+4FfLVc2iqji+jNaWNqfZfkfmWW1GxJs9+ErufhXYxXF5Pe3XJj6V9d/Gn9ka8gin8VeFZJJQeTCBwPpXw9Y6lrnhXUbnTmg2PDw++uurUjXh7p6uX4l8/LU9T6BhWB7qSdV2s/FZSavp+nX8mlBhGUG/JNeT6b4/1i5EoiWNAueX/AKVytv8A294nuHu7H95cZwy9eK4qeUzXvzenqfQYjO4wjaLOr8Wa6viHxFBbWT+XEzBCRzk5r9XPC/hjTdP8Aacrsr7oFzxg9K+Efgl8AZ9Y1WDxJ4gDrDbPvaIjgmv0amjtbyzFnBiKFEwg9AKnE1aNFWep8/VxnO+eR5p4m8SaBFpzaNdQrIqrj5uR+A9a+XrnVdJ07xCmqQQGcbDGEkOQoPpxXXfElZ7O8Zeqg9a8PuL5xLlhXPTxlSduTboeFicbJyfIzP1bRtGuNYN0VIUNuHtXc2PiG6VFtonIhQYVQelee3+oghiccU/SL8PwvWvQqxrTp3iziVacn7zPe9J8cXGm24gOWA6A1y/iXxfdakSFyp+tRWWn/aYRKx6Cuc1Cxke4Kx5rxqWHfNepuWptuxFDqtzbZaVs5qzY3z3V4pzWDc6fdwqWKk4q94YEkl1864xXVXp0+XQJxdj9Vf2AizePdQz/AM+4/ma+5f2tOfgL4g/69zXwr+wFOD8RNRgzytuv8zX3j+1Zb3F38Cdft7RDJI0BAUDJNe5k6thbebNqPwH88COSoXPFPyB0FbqeFfE2wZ0+X/vk0r+EvEzrj7BN+ANbezMuQ52VSmD2NNLELhjgnoa3W8H+InwHtJwR2walHhLxPMvlxWMjY/2TQ4NbC5Gc9eSz/YntIZCgmUqzJxwa5fS9CudH0N9G8O6jPZyTnbIwb5Sp68df1rv28K+KJJPs8tlKmzkYUjNRnwp4lmzdS2Mq7DjZtPNFGtNbkqDQ3xD4m+12GleDNMs5lsNNib7S1u237Q4HDNwe9cCmo+JfDuoW3jSSyjuo1V44InH3Af616TF4e8XWshC2sqGVTtIB4FRN4a8YPDFYPayyIMkFlOD9K7Pbcy1N4to8W0zTda1q7Ov63IzNI7MkZ/gyc8H0rtiBEFUZYn3711cnhHxWoCmwl54yqniqsPhPxOR5pspRnjBU8VzxfKRNyloc8VNQk7jx1ro38K+Kk+cWMpQ99pqJvCHiV8tHYTEAZJCmpnOT6CjTOZmBVx5h69KvW+p6rpSsLCTZv61qL4N8TyQGP7BNnqCVO78Km/4RHxM8Cw/YZMjn5lOainh4V7xxiv2LvKjUjOmfZX7Pjaff6fE8DNNc9JcHvXV/Fv4vx+CLlfD7WrJM7BTLnjGeTjHpXyF4J8Q/EH4ewyXGjac+525+U1U8eal8RPHtwuoarYuCFPY+lfnlfhCc8wdSSvTPuqnFUqeGUYvVH9DvwG1C01X4U6Rf2Mnmxywghh3r4v8A2qrq6u/ivb6TbjCi1VnI9Mmvpf8AY9trmz/Z58O295GY5FgwVPUV8oftX6rd6P8AGNbq2iEi/YVEmfTLdK+4zPlwuCjCOysj4vFVnVvVlu3f7zziK2sE8OXlzAQrhGQHsPqK4rw1qM+gOJ7nbNbSxFGDfdye4965618USa1C1lbRMA38A7j3rMfzdI0gjXAwC3CmOIdSPp6V8lUrSnqjmjG+p4/8cIL+eIXHkjyo1byWPUA9a+Ob3xVfS6RbwTgo8WVjbPUZ5zX2b8YtXvNb121ghIjhaPHlL2HvXiWpfCeXV0WSykXydpJAxlSOte/l2PdKOpq1ze6z5/t4YINSn+3hprBly4z827tj05r0HwXf+Nfh1av4gsrUvp+pZjX1x0HNbng3wLZTzSQTpO0EbZdmHUg8Cvo6K9e4ggj1/TmhsLcqsaKPlXH8TfWuyVdV3qa08XKh8B856T8ZbbwD4ZufC+tadIL+V2lgfIG0ucg4x70mu/H467YwHTLcrdWqq0jOdxb1xwMV9n61+zd8Kfin4kXWJ9QeAGBN+3G0DaOldFF+xJ4HjvGu9EvvOTysFTt5FafUqNnUqrQ7Xn9VxcFufn/4n+L81h4vsPE+gESzSWoSVT0BzVaD9ojxfZm4NnZRsshy/wApwfwr6B+JPwCtvDcxtNPs283PDBRyKu+EfBmlaVaxaZq2mJI7/eLLzWX1rBSV4Ly2BZjiYrmueSfB/wAPeNfizc3utSeWttIrR+W6kopbjIGeor69074PaXoXgWPSrx0aSH5XaNcFi3TnJr0zwl4Y0PwpbommRfZ4pCHZEGAe9er+JtU0a68MvNaW0aFB1HcjpXn46u4RlTp7Hn1cVXru83ofndF8LtKj8VLaXzPIyHIUfmM19S2Pw8tIrE3e+JAi/dVcHp65qx4N8P21zPJ4n1YBZZCQFPXiuvvNFg1G28yyvFhDcEZ6fWuGhVk4amDPlrV43ttUeOM8Ve8PS79RcH/nmen1Feo+IPhvLbp9ognFwx9Oa4vSNB1Sy1NvMgbmM9B7iunDzu9SLan/1/pfx98MPG0nxo1jXLW0kktp5wykA4I2gV6BB4I1w3kLvp7gheTj2r6h17/kYbj/AHqkT/XL9K+Lx+Apym5Xe7NMNpFLzPkPU9F8ZW102nLYSvDIeflr5R+KH7Kf/CW6q+otplzFJc9fKGAcetfqZqn/AB/LWZqf+thrpwWGSja7N5zftZNdj8mNG/YJ0KRUuNStb8Sd1BwpAqbxH+z5feEp1/4RTw/PxxuC5J+tfrXB92uE8S9R9aVSMm2ud2OWpJu1z4K8J6F8SdP0g20miTK54PyYyK9U0j4V+OmsReXtnLmXkLjoPSvpG0/1Y/CvXrb/AJBcX0rKOCp1Pj1N6v8ADsfkr8T/AISePbncbXSJ5DnstfN+pfBb4qH5otCuv++K/bDxR/FXnc/QV1SwcIJRi2jxYU1fc/GWb4E/F65kwdBusE/3DXWab+z18TreISnRroHrjbX6xRferfj/ANSK1jB8tuZmkoJo/LW3+FfxTtLfy10W56f3K1vD3wf+JF1dbrzRbhR7qa/S+TrWno/+sNcVXDp3d2FGC3Pz2u/gb4xmjZV0efp/drh7b4EfESC6Jh0i4A/3TX61noayF/1tcCw6b1bOyUU0eK/sP/Dnxf4T+Iuo6hr9nJbxSW4UM4xk81+o+o6ZZ6tZvYahGJIpBhlPcV4L8Iv+QzP/ALo/rX0XX1mV01CgoruyaatGyPNx8J/Af/QPT8hTh8KPAg5/s+P8hXo1Fehyo0seVz/CbwNIjbNOjLdsgV5ZL8L9Wj1BksNLsxD2JXnFfUa96hT/AFhosg5UfKJ+GviIaTcy3ulWTXwfEBVPl2e/HWrelfCu/UW8msaZaMrqPOCrzk+lfTd11FOb/Uj61rJJq9gsfL+ofC3WTfzeVpdl9kQHyBt+bpxniq9p8LPEM+pact3plkLTDfasJ8wPbbxX1VN9wUsXSs+VAeFah8L7NNg0zTYCpzneozx0qbSPhVo8lmp1nTLcOWOdo7flXufYUfwU+RAjxi6+EHg95YorbToxFn5hgVkN8KtKh15rew02H7Ht53L3/Kveh1FRp/x9mqjFdh7nznafCyX7Hfy3emWv2tSwtsL8u3tniui0P4TeHZtOhl1nS4ftZX95tAA/lXtx+8340RdB9KiCUqbUkTSWjueYr8IPABQp/ZkWPp/9amyfCLwKIxjTIvyH+FerJSyfcFZ0G+SzHFe8Z+j6VZaLp0WnafGIoYhhVHQV+Y/7XvhbxrrHxWiufD9nNNAbNVZkGQTubiv1M/hr5k+K3/I1x/8AXIfzNeVn1JVMLyy7ozrK8T85fDPg/wAYeEdAk8TPo0894rbBGVz8n0ot/h78SvHds3iDUdMlgcMBHGVxhD1/Gvtm9/5FmT/eP866bwh/yA1rzcLgafszOmj8+tR/Zz1K7UyXdhcl2XhwPmBrhfDPwB8a6dqc1mllclWyULjg/Wv1VuvuLXPWf/IXFWsHBMVVaHwl4R+A2pPe7vEemTxs/wB4RDC8dKv+JPg3qj217pmj2V3ILkBXWQfKAvTb6V97wf8AH2PrVA/8fstdNPDxWxdKCa1PzOtPDfjvwlahdL0K6muB+7CuuUwOKteH/Ffxks9ei00+H7mKMHLME4+n0r7d1H/j6X/eNc3B/wAh+u7D0U5qMndE1aaSujmfCem+K/HV9u8R6M8fktwxTGRXmXjf4GeNpvE82o6VaSCHd8oA6CvurwB/rZK6fVPvvXl4jLqKS5VbUuUpclrnxBafC/xtHpSIlnIQBhgQc4rltc8G+LrOGPQbLTLl45G3O2On41+hcH/HkK4HVP8AkIr9DWGLwsXPfojPDt2aufG03hPxDZ2xiOlXTrGBjC89K2rb4ZaldaQt4mn3SM3O0jn8a+pL7/VvXSad/wAglPpSo4OCha7BxR+fV94R+JFtKY7LTZ9g6ZWsqz8H/FG71FnuNOuFAQgfL7ivvi7/ANYahs/9e30P86ulg4c27J5Ef//Z;" vertex="1" parent="1">
          <mxGeometry x="128.67" y="160" width="182.65" height="60" as="geometry" />
        </mxCell>
        <mxCell id="kvj4Kk1q9P-7B0Aj4nHL-44" value="" style="shape=image;verticalLabelPosition=bottom;labelBackgroundColor=default;verticalAlign=top;aspect=fixed;imageAspect=0;image=data:image/jpeg,/9j/4AAQSkZJRgABAQAAkACQAAD/4QB0RXhpZgAATU0AKgAAAAgABAEaAAUAAAABAAAAPgEbAAUAAAABAAAARgEoAAMAAAABAAIAAIdpAAQAAAABAAAATgAAAAAAAACQAAAAAQAAAJAAAAABAAKgAgAEAAAAAQAAAMCgAwAEAAAAAQAAAcAAAAAA/+0AOFBob3Rvc2hvcCAzLjAAOEJJTQQEAAAAAAAAOEJJTQQlAAAAAAAQ1B2M2Y8AsgTpgAmY7PhCfv/iDSBJQ0NfUFJPRklMRQABAQAADRBhcHBsAhAAAG1udHJSR0IgWFlaIAfoAAEABAAPAAsAAWFjc3BBUFBMAAAAAEFQUEwAAAAAAAAAAAAAAAAAAAAAAAD21gABAAAAANMtYXBwbAAAAAAAAAAAAAAAAAAAAAAAAAAAAAAAAAAAAAAAAAAAAAAAAAAAAAAAAAAAAAAAEWRlc2MAAAFQAAAAYmRzY20AAAG0AAAB6mNwcnQAAAOgAAAAI3d0cHQAAAPEAAAAFHJYWVoAAAPYAAAAFGdYWVoAAAPsAAAAFGJYWVoAAAQAAAAAFHJUUkMAAAQUAAAIDGFhcmcAAAwgAAAAIHZjZ3QAAAxAAAAAMG5kaW4AAAxwAAAAPm1tb2QAAAywAAAAKHZjZ3AAAAzYAAAAOGJUUkMAAAQUAAAIDGdUUkMAAAQUAAAIDGFhYmcAAAwgAAAAIGFhZ2cAAAwgAAAAIGRlc2MAAAAAAAAACERpc3BsYXkAAAAAAAAAAAAAAAAAAAAAAAAAAAAAAAAAAAAAAAAAAAAAAAAAAAAAAAAAAAAAAAAAAAAAAAAAAAAAAAAAAAAAAAAAAAAAAAAAAAAAAAAAAABtbHVjAAAAAAAAACYAAAAMaHJIUgAAABIAAAHYa29LUgAAABIAAAHYbmJOTwAAABIAAAHYaWQAAAAAABIAAAHYaHVIVQAAABIAAAHYY3NDWgAAABIAAAHYZGFESwAAABIAAAHYbmxOTAAAABIAAAHYZmlGSQAAABIAAAHYaXRJVAAAABIAAAHYZXNFUwAAABIAAAHYcm9STwAAABIAAAHYZnJDQQAAABIAAAHYYXIAAAAAABIAAAHYdWtVQQAAABIAAAHYaGVJTAAAABIAAAHYemhUVwAAABIAAAHYdmlWTgAAABIAAAHYc2tTSwAAABIAAAHYemhDTgAAABIAAAHYcnVSVQAAABIAAAHYZW5HQgAAABIAAAHYZnJGUgAAABIAAAHYbXMAAAAAABIAAAHYaGlJTgAAABIAAAHYdGhUSAAAABIAAAHYY2FFUwAAABIAAAHYZW5BVQAAABIAAAHYZXNYTAAAABIAAAHYZGVERQAAABIAAAHYZW5VUwAAABIAAAHYcHRCUgAAABIAAAHYcGxQTAAAABIAAAHYZWxHUgAAABIAAAHYc3ZTRQAAABIAAAHYdHJUUgAAABIAAAHYcHRQVAAAABIAAAHYamFKUAAAABIAAAHYAEMAbwBsAG8AcgAgAEwAQwBEAAB0ZXh0AAAAAENvcHlyaWdodCBBcHBsZSBJbmMuLCAyMDI0AABYWVogAAAAAAAA8xYAAQAAAAEWylhZWiAAAAAAAACDCgAAPW7///+8WFlaIAAAAAAAAEv6AAC0IQAACuBYWVogAAAAAAAAJ9IAAA5wAADIkWN1cnYAAAAAAAAEAAAAAAUACgAPABQAGQAeACMAKAAtADIANgA7AEAARQBKAE8AVABZAF4AYwBoAG0AcgB3AHwAgQCGAIsAkACVAJoAnwCjAKgArQCyALcAvADBAMYAywDQANUA2wDgAOUA6wDwAPYA+wEBAQcBDQETARkBHwElASsBMgE4AT4BRQFMAVIBWQFgAWcBbgF1AXwBgwGLAZIBmgGhAakBsQG5AcEByQHRAdkB4QHpAfIB+gIDAgwCFAIdAiYCLwI4AkECSwJUAl0CZwJxAnoChAKOApgCogKsArYCwQLLAtUC4ALrAvUDAAMLAxYDIQMtAzgDQwNPA1oDZgNyA34DigOWA6IDrgO6A8cD0wPgA+wD+QQGBBMEIAQtBDsESARVBGMEcQR+BIwEmgSoBLYExATTBOEE8AT+BQ0FHAUrBToFSQVYBWcFdwWGBZYFpgW1BcUF1QXlBfYGBgYWBicGNwZIBlkGagZ7BowGnQavBsAG0QbjBvUHBwcZBysHPQdPB2EHdAeGB5kHrAe/B9IH5Qf4CAsIHwgyCEYIWghuCIIIlgiqCL4I0gjnCPsJEAklCToJTwlkCXkJjwmkCboJzwnlCfsKEQonCj0KVApqCoEKmAquCsUK3ArzCwsLIgs5C1ELaQuAC5gLsAvIC+EL+QwSDCoMQwxcDHUMjgynDMAM2QzzDQ0NJg1ADVoNdA2ODakNww3eDfgOEw4uDkkOZA5/DpsOtg7SDu4PCQ8lD0EPXg96D5YPsw/PD+wQCRAmEEMQYRB+EJsQuRDXEPURExExEU8RbRGMEaoRyRHoEgcSJhJFEmQShBKjEsMS4xMDEyMTQxNjE4MTpBPFE+UUBhQnFEkUahSLFK0UzhTwFRIVNBVWFXgVmxW9FeAWAxYmFkkWbBaPFrIW1hb6Fx0XQRdlF4kXrhfSF/cYGxhAGGUYihivGNUY+hkgGUUZaxmRGbcZ3RoEGioaURp3Gp4axRrsGxQbOxtjG4obshvaHAIcKhxSHHscoxzMHPUdHh1HHXAdmR3DHeweFh5AHmoelB6+HukfEx8+H2kflB+/H+ogFSBBIGwgmCDEIPAhHCFIIXUhoSHOIfsiJyJVIoIiryLdIwojOCNmI5QjwiPwJB8kTSR8JKsk2iUJJTglaCWXJccl9yYnJlcmhya3JugnGCdJJ3onqyfcKA0oPyhxKKIo1CkGKTgpaymdKdAqAio1KmgqmyrPKwIrNitpK50r0SwFLDksbiyiLNctDC1BLXYtqy3hLhYuTC6CLrcu7i8kL1ovkS/HL/4wNTBsMKQw2zESMUoxgjG6MfIyKjJjMpsy1DMNM0YzfzO4M/E0KzRlNJ402DUTNU01hzXCNf02NzZyNq426TckN2A3nDfXOBQ4UDiMOMg5BTlCOX85vDn5OjY6dDqyOu87LTtrO6o76DwnPGU8pDzjPSI9YT2hPeA+ID5gPqA+4D8hP2E/oj/iQCNAZECmQOdBKUFqQaxB7kIwQnJCtUL3QzpDfUPARANER0SKRM5FEkVVRZpF3kYiRmdGq0bwRzVHe0fASAVIS0iRSNdJHUljSalJ8Eo3Sn1KxEsMS1NLmkviTCpMcky6TQJNSk2TTdxOJU5uTrdPAE9JT5NP3VAnUHFQu1EGUVBRm1HmUjFSfFLHUxNTX1OqU/ZUQlSPVNtVKFV1VcJWD1ZcVqlW91dEV5JX4FgvWH1Yy1kaWWlZuFoHWlZaplr1W0VblVvlXDVchlzWXSddeF3JXhpebF69Xw9fYV+zYAVgV2CqYPxhT2GiYfViSWKcYvBjQ2OXY+tkQGSUZOllPWWSZedmPWaSZuhnPWeTZ+loP2iWaOxpQ2maafFqSGqfavdrT2una/9sV2yvbQhtYG25bhJua27Ebx5veG/RcCtwhnDgcTpxlXHwcktypnMBc11zuHQUdHB0zHUodYV14XY+dpt2+HdWd7N4EXhueMx5KnmJeed6RnqlewR7Y3vCfCF8gXzhfUF9oX4BfmJ+wn8jf4R/5YBHgKiBCoFrgc2CMIKSgvSDV4O6hB2EgITjhUeFq4YOhnKG14c7h5+IBIhpiM6JM4mZif6KZIrKizCLlov8jGOMyo0xjZiN/45mjs6PNo+ekAaQbpDWkT+RqJIRknqS45NNk7aUIJSKlPSVX5XJljSWn5cKl3WX4JhMmLiZJJmQmfyaaJrVm0Kbr5wcnImc951kndKeQJ6unx2fi5/6oGmg2KFHobaiJqKWowajdqPmpFakx6U4pammGqaLpv2nbqfgqFKoxKk3qamqHKqPqwKrdavprFys0K1ErbiuLa6hrxavi7AAsHWw6rFgsdayS7LCszizrrQltJy1E7WKtgG2ebbwt2i34LhZuNG5SrnCuju6tbsuu6e8IbybvRW9j74KvoS+/796v/XAcMDswWfB48JfwtvDWMPUxFHEzsVLxcjGRsbDx0HHv8g9yLzJOsm5yjjKt8s2y7bMNcy1zTXNtc42zrbPN8+40DnQutE80b7SP9LB00TTxtRJ1MvVTtXR1lXW2Ndc1+DYZNjo2WzZ8dp22vvbgNwF3IrdEN2W3hzeot8p36/gNuC94UThzOJT4tvjY+Pr5HPk/OWE5g3mlucf56noMui86Ubp0Opb6uXrcOv77IbtEe2c7ijutO9A78zwWPDl8XLx//KM8xnzp/Q09ML1UPXe9m32+/eK+Bn4qPk4+cf6V/rn+3f8B/yY/Sn9uv5L/tz/bf//cGFyYQAAAAAAAwAAAAJmZgAA8qcAAA1ZAAAT0AAAClt2Y2d0AAAAAAAAAAEAAQAAAAAAAAABAAAAAQAAAAAAAAABAAAAAQAAAAAAAAABAABuZGluAAAAAAAAADYAAK4AAABSAAAAQ8AAALDAAAAmgAAADYAAAFAAAABUQAACMzMAAjMzAAIzMwAAAAAAAAAAbW1vZAAAAAAAAAYQAACgRAAAAADZk12AAAAAAAAAAAAAAAAAAAAAAHZjZ3AAAAAAAAMAAAACZmYAAwAAAAJmZgADAAAAAmZmAAAAAjMzNAAAAAACMzM0AAAAAAIzMzQA/8AAEQgBwADAAwEiAAIRAQMRAf/EAB8AAAEFAQEBAQEBAAAAAAAAAAABAgMEBQYHCAkKC//EALUQAAIBAwMCBAMFBQQEAAABfQECAwAEEQUSITFBBhNRYQcicRQygZGhCCNCscEVUtHwJDNicoIJChYXGBkaJSYnKCkqNDU2Nzg5OkNERUZHSElKU1RVVldYWVpjZGVmZ2hpanN0dXZ3eHl6g4SFhoeIiYqSk5SVlpeYmZqio6Slpqeoqaqys7S1tre4ubrCw8TFxsfIycrS09TV1tfY2drh4uPk5ebn6Onq8fLz9PX29/j5+v/EAB8BAAMBAQEBAQEBAQEAAAAAAAABAgMEBQYHCAkKC//EALURAAIBAgQEAwQHBQQEAAECdwABAgMRBAUhMQYSQVEHYXETIjKBCBRCkaGxwQkjM1LwFWJy0QoWJDThJfEXGBkaJicoKSo1Njc4OTpDREVGR0hJSlNUVVZXWFlaY2RlZmdoaWpzdHV2d3h5eoKDhIWGh4iJipKTlJWWl5iZmqKjpKWmp6ipqrKztLW2t7i5usLDxMXGx8jJytLT1NXW19jZ2uLj5OXm5+jp6vLz9PX29/j5+v/bAEMAAgICAgICBAICBAYEBAQGCAYGBgYICggICAgICgwKCgoKCgoMDAwMDAwMDA4ODg4ODhAQEBAQEhISEhISEhISEv/bAEMBAwMDBQQFCAQECBMNCw0TExMTExMTExMTExMTExMTExMTExMTExMTExMTExMTExMTExMTExMTExMTExMTExMTE//dAAQADP/aAAwDAQACEQMRAD8A/faWSKFGmmO1VBJJPAA6k1wL/Ff4bxkrLrVmpHHMyD+tbHjpivgnWXBwRY3ByO37pq/kK8by31813LDqNwpSWTox/vH3qZNrY0hTck2j+tN/jJ8LYztfX7Ef9tk/xpB8ZfhY3/Mfsf8Av+n+NfxLPq2vFnzqFyQhxy7f41QPiDXP+ghcf99n/GkpMzd07M/t4Hxm+FecDX7H/v8Ap/jTh8Yvhcc7desjj/psn+NfxANr2ug5/tCf/vtv8asp4i8RxgKmoT5b1kP+NDk0N7XP7eD8YPhgDg69Yg/9dk/xq4vxO+H72v21NYtDEDjf5q7c/XNfxNnV/EGp38Fvb31wCwVQd5xn86+3JZ59A8J2fw91m/uImvoxKpDE5ftzmmmz08BlssUr7H9QP/C2vhoTxrll/wB/k/xp3/C1/hx0Gt2X/f5P8a/i88WjxbpGtS6c19cqYT1LsAR7Vx0niLxVCTtv7n/v4aXMzmxGGdGbgz+3E/Fv4aL11yy/7/J/jUa/GH4YMcLr1kf+2yf41/Ea/iXxAsfmHUrnLdf3hpj+JPEEC7oNRucn/bNNNnKz+3ZvjB8ME+9r1iM/9Nk/xpv/AAuP4XZx/b9j/wB/k/xr+H9vE/it3BudQuMZ672qW88Ua5kNHqNweP75/wAaeoj+3s/GL4XDrr9j/wB/0/xoHxj+Fp6a/Y/9/wBP8a/hx/4SvxMxx9vn/wC/jf41MniHxGTg3twc9cO3+NGoH9wifGj4VyNtTX7HI/6bp/jXY6D4o8P+KLdrvw9eRXkaHazROHAPpwa/hL/4STXojtivbkH/AHz/AI1/Rx/wRsv9SvvhP4gk1Cd5sXq7d7E4+X3ouB+zQ6UtFFMAooooAKKKKAP/0P3S8brv8GaunrZXA/8AIbV/J9r2hRLcX0ZTjzJP/QjX9Y3jIgeEtVJ6fY58/wDftq/l/wDGdpHdC4lgHSSTp3+Y1yYmq4NJdT1stgnGTZ8aa14eht9ImuEjw2TXjDafLvHvXunjDU7hw2nLHwOpryuXUIrR4k2YP8WauE21cxxMobIwrjTJFjDA9Ks6Xpr319bwKDJLK21YxxU6XD3dybNTlXOc+ldV4TtLi18WWkumRG8kicHYoznB6cVak3uc1HDynKx9H+Ef2fdU0ie31HX7lE2OJha4+Zl643Z/pX0N4u+D/ijxDquleJrQgxRbUEfdE+teW6hq/inxX8R9Pl1i1ewEKoPLGcbR6ivp7xF8VtL8BRW9hfyfb1nIHlA4MfvxXQoXWp+nZPhKdOi7o+d/jb8PdEub+K9uroQqgCNhcnd+fNfJXxO8CQeCLm1dbnz0ul3A7dvH0zX6ifED4YReP/BDeOtIn8t7RfPCnG1gOcGvmfXvhlc/Gbwfb+ObudYvsabGhQDqOwFHI9keLmuXqrNypn57IFjV42QvzwaS4nRQI/KINeuXOi6XZ6hLpc0BSRM7s9QR0rzDWbgC4aMxhSvHTmpasfIYrDumzFuroEBSmKy5GyeOBU0mXJbqKfbkbgGXIY/rU3OToOsdOnvXCxg813dp4Xv7e0+0TDgHvxXa/Djw1dX+tRSTARiL5s9gPeur8b2d/fXcqbfLt1J+ZeM470yowueC3FpE0hXGCK/op/4I0nb8KdfgPVbxf/Qa/n6uIVSXyIgCB1Nf0D/8Ecmj/wCFb+IgvUXaZ/75pMqVOyufs8KKKKZkFFFFABRRRQB//9H91fGhx4Q1bP8Az5T/APotq/mi1UCSG5RFwWkkH/jxr+mHxgC3hTVEHe0nH/kNq/nRTw5PcXk32kYXzX4/4Ea3oYB4m8uw5ZnHBU5cy3PjPxD8Kdbv7p9RglwCc4rxXxF4D8TWJe6aAyL04FfqgdK02xj8t0B+tYuq+FLbXtMa3WNBvDMWUcDAyK9ujlPuczR81LOk5c5+W2g+Cb6fU47G8Bgml5XNfWXwgstV+GOl6n4rtLSJtStlIU3Cb0KjoQK8g1C31261Ke8+0K0lnLsUIMMADxX2n4atYdQ+Hap4tZY55kAWToGHoa8OcY+0cbWsfqOSUIYmlGsnY534D+OtY8c/EGbx78RooY7N4jG7qm2NRjqBzXc3um+DPjBqzjwym+fTroMxB4aEZz/SrnjXw54P8KfDmzsdJuI7qK6KiWGA/MCepOOcUngX4rfBv4Y+HXtNG0tob9m2ySliSw79e1JVYQ91s+mS5YqMZHTat8VvBttqj/CLcyaZPFiQqcP5hGNob0rxC1+FPi/Qddi07RWmi06SVXjjY5BQHPNd3qPxS+COvX63lloKjUcbhJk8t69a3bH47z6ZZSLrcQmZciIgcp6CpliILW5rRjFN87ueF/Fbwx4B8Ea/eeI9ZtJZLyUqIQHwgPcsvevz/wDiJetqHiSW8Kqu4DAQYGK/RjxV4s8A+KLY3njyymu7jOYyjFQPrjrXwB8U7zRb/wAVTT6Enl25ACr6Ypc8Z7M+Vz7DRp+8meXE5X3Nb/h3TodSvobK9fykkbAk7A1hyJtYYr1r4ceEo/FUNxLLwtmA5Gcd6ORdGfJRs9UfR/w/0uS20n+xYoTMJJNnnjqR/hWr8XNP/sm0h0aOMKipye/T1r0XwFDaafaWi23XjjrxWT8bdPk+xPLMcu3Kn2qTeDsfDOqzCGTybX7xr+gT/gjdbmP4Z+I5G6teJn/vmv57tYRrefeOD61/Qv8A8Ea2L/CjX5G6m8X/ANBqb6mlWScbH7NDpS0UVRxhRRRQAUUUUAf/0v3b8VnHhnUj6Ws3/oBr+fu6uLm4vJlhJ/1j/wDoRr+gbxUu7w1qI9bWb/0A1+Df2VLe5lIAH7x//QjX0ORNJTT8v1PmOI5NckV5lWy0oTANdLk+9a999m0/TJGKBFCH7o7Yq3BLG+EJr5O/aU+L7eGbA+FNLYfaJQQxB5Ga9rGYtUINHzuX4eVeoqZ8c+NfG6W/je+TQYljSZ9rFRjJz1+tdMmr60mnQwT3s9xHL92N3Zgp9gTxXmGl+EtYjhi8SXQ4uHO0N1Jr6s+D+jaVPqUN54jXZufZ04GK/OMwxHtJOUD9kyhSoUvZ3O08A+Fp00Y6heq7bhhh/Fj1rifFOhXst7IscP7rHDEc/jX1d/a66b4viWFQLIDbuUcEV1Pi2Xw/baJcyqo/fr8px3rxKk533PZVWb6nxN4M8HauciGMOzHhgOR9MV7hrPgcx6RG11CzTAYIUck+pr0P4M6np/2Bo4UBkjkwT3r0DxT/AGjfa4k8S+WkZ596nmm+pfPNa3PlXT/C8NpE1rqSgrIMr5gzj25r5B+NXgEabfvqlrCsUT9AgwPyFfov8SI31W6iuYE3GIYKqOprxXWZNLfULO01Nd7YIkjI6A9K66FSSa1PPxlOVdWZ+YsmzA3DmvS/hpqF5Z60lpZuQt0QjqD1FWviv4Hbwt4knNsM2spLq4Hy884qL4VQ2a+OdN80tjzOuK9ylrqfOyoOnKzP0a8E6S1tJGk8WFUZBI/rXjPxq8WwwNNYXLfvASAD6e1ev+KvHlxo+nTW3huJproJgjHT3r46TQbzXtZm1vxHnzGBJVux/GrY0eA6jdXN7ecZK5r+jL/gjdEI/g/rh/6fv/Za/nu1WO3tbueOE8KeK/oT/wCCOJJ+Dmtk/wDP9/7LWUt0aS+Fn7I0U3nNGea0OUdRTMnOKUH1oAdRRRQB/9P93/FALeGtRUdfs0v/AKAa/CuXQtRkupN3Qu5/8eNfur4lB/4R2/29fs0v/oBr8SG/txb2ZmHy72x+Zr6HIWlKV/L9T5HieTjKk15/oZX9ivawPJM2AgJ/Kvyn+Lsf/CYfFOUWb7xux+Rr9MfipruoaF4Evr8nYwUgEGvzo+EPgy88U6zL4k1STZDGWfcT170+I60YrQfC2HlKt7Z7HOeKodUs7GzjjkwiHaE/ukd6+ivgvpR8U2M1i8gWdV+TJ5Jr5r8Q6rHqfiu5jjz5UbFFU98d67PwNrWpaFrKz2jHEmAuD0PtXw03daH6bF2m2j7AuIdQ0exMGsjy2jOCx9BXnPin4nW9+Bp0JBSNdoPrV34peODcaVbWSP57ThUfPB3HrXmL+B7y/hi+zRiJhjIyP1rhqwa1OunVOj8GeL9Q0G6kltxgP81fUng7xvF4sVYb2YJISCQfavnHTfBOqW3lh4vkH3mPpXpllpVh4fu4LkDashHzDtXMq2tjrnLlie/z6BZaPLcavesDAULKT0yK/PLxZrEt54xl1iLhHcqD6AcV97+O9etD4Xt7NuYnjOHHOTXwJrunMtzLE3BkJ2ehFKM5cxlSTV2yx4/+H+q+IfBg/s5ftCgbomHdjyRXyh4FhvdJ8b2f25ShglCsp7dq/QH4HDVb/Sb6wmG+G0XK5/hPevIPGnw3vX+JU+t6TbhYEVWbHTOete7gK7b5WeLj6L5vaX0PqDxfo3hvRPDkd6Ljy7u5jDlvYjpXxB4o8Tw2rvDC2/PBavrn402E8/w406fb86IOfwr8+tTnkmUrJ1WvSPORxOoO81y74xvNf0T/APBG1WHwd1wN/wA/3/stfzszgliSelf0Vf8ABHD/AJI7ref+f7/2Ws5LVMpu6Z+uPiTXLfw1ol1rt2jyR2sTSMsYyxCjOFHcmvxv8f8A7dH7THwr+J2h+JfiJ4YXSfBGu3a28Cy/63y3PDMezY5xiv2qcBgVYZB7Gvya/wCCvVn4cb9nO3ur2dIr+1vYns4+AzNnDbR7KSa0Oc9+/aK/axvfCmkw+DPgVp7eJ/GmowLcQ2MHzGCFhnzZOgA7AZr0n9knxX8Z/Gfwoi1z466e2ma408itbsu0qisQCRk9a+ff+Cb3w70eP4O2/wAZ9Sm/tHxB4iRVuLp/mZI4RtSJfQDk8V+jks0cEbTTsFVRkk8YA9aALFFfNFj+118B9W+KsPwZ0TWBfa9MWAit0MiKUBJ3OuVXp3r6XoA//9T94fEv/Iu6h/17S/8AoBr8VZZZleVHP/LRv5mv2q8R/wDIAv8A/r3l/wDQDX4yz2T3FxPjjDt/M19Nw9G/P8v1PjOK3aVL5/ofOH7RbNL8NL2OOTDGvmz4WLFH4NstNdtryfePqK+0fi54EHiHwHdRRNhlUlu/SvhzwtJ/YXg621Z180K5TGcdPzryuJYTuj2eEqkOU8o+I8WlWHjBotJAATn6nvU2gyiLXUv5ztRAGVfeqPjuFfEWotrOjLsEYGU689+eKgdH0/SZLi4BYtHkf7JxXzc42hFn20ZXkz1bwnp938SvFQuN3lJBJkb+hI+lfYNpa+GPDUyR6grXDgfMqDIzXzJ8DtI83wkl805ja6lEYYLzkmv0E8FeCdNtPJTV3V5CuNzj71c8rPRnTCL6HFw+L/D2pWEtrZ2UmUHygqOKyovBT+INM+3xSKoVWLK3DDivqNfAWhWNrLfhBnPRR1rkH8IRLP8AbISY0lHK+1clWko6nbBN6M+QU8SQ2VrLo19+9jAKrj+H35r5q8Wx3P2gQ2pztJKt2wa9x+Itgvh/xXcwqpMZJxXFeI9Amj8Mx6muAbk4QHqK54rUJu2iNT4Va7LolnLFb8pMNsvua1/E3j3T/CcMkOojfJe4VGGPXpXmfg23vNJ1ebQL2UbgocfjzXlfx/v7uDxhZ6YDuhjZWU+9exgF7x5WP+A+1/i9qEV38L7O4jU7TEP5V+Y+rynzWKcA1+mPjWH7b8GbBsceSPzxX5n65Dsu2T0r1jxzkZWJya/ot/4I28/BvWz/ANP3/stfzqzrjNf0Uf8ABG1v+LO62v8A0/f+y1Mug76M+4P2qv2rNC/Zc0bTdX1fR77Wm1GbylhsUDOoHc7io/WvkVvgp8Qv2xdL1r42/FG1bTrO40y4h8O6NN/rYTIhCyzKMqGPbBJ5r9TNc8L+HvEvlrr9nDdiFtyCVQ20juM1tRwxwxiKNQiLwFAwAOwFUYn4MfsO/tU658HfBsv7NN74Y1XUPE1rfvHahIgIAhIGXdiMKMdfev19+Knwx1f4xeBLXwvqGpS6N5/lvei1Y5dcDfGDxx1Fek2fg3wrp+rSa7ZadbxXkv35VjAc/jXRu6RIXkIVR1JPFAH4a+EvhN4I+DX/AAUr0vwh4BtPslmNNLuM5LuY+WJ9Sa/c+vxg8WeIdCh/4Ko6ZJLeRBTp3l7twxvMXC5ziv2cjkjlQPEwZT3ByKAP/9X94vEZA0C+J7W8v/oBr8d2vEF1KezO38zX7C+Jxu8Oagq9fs0v/oBr8VLhJo5XFzKsHzt976mvpuHfil8v1PieLnd0o9df0NLVpFOm3Fs3KyIQR9RX5zeJtCvrDwvd2tsNsMLsy575NfoAJyxxIftC9MrxXwp+1D42sdIePw14dZVkkOJAP1rs4hoQnDQ5OGK1SFb2R8xaRrp0y+CSqHWXhgecVa1W/vL+/i0IqqQF9yvjrnt+FYGiRwCaG4vBui3ZPrmvpSbwvofiXwiur26AyWhLDbwxx9K/Pqmnus/VYtp8rPfPgZo7Wtrb6Y8KyoHDbcdD619K+NbWbVJbRba78qK1cHCcEkdjXx1+z/8AE5NPvfs0uPveXhuTnpX6Kw+ENP8AEelrqenREXEg5/u898V584yvdHtYecbalLw54yvnlNqqpvXAIfkY9a9AS0ttbilud21kHIXpXLWXwrutP2zXgfLc5BwfpW5f+NdJ8F6Dc6eFUSvwMjJpShKasdE6kLe6fCXxvt4bDWEuoUEhc96+VPGHi/Uta1e28MPHtijIAKfw5r2D4reNIL6+u5NUlDCFv3QXjr618sR3lxcaoNZnkAfdlAO4FZKk07nK3d2Pqy6+DnirRNVsfElhG9+lwFDj+6MdeK8G/aS0W10vxRBKRlsKSD2NfoN4D1HW7vwVZeK/EUhht3ULGvTOBj8a+Ef2oWvL3X47iZOHI24GMivSwatIxzGjaipeZ9AatqUV58BrKYdlx+lfmxrUga9kNfoqLNbj4CQrbodsY5784r84NXYi6k3KQQa9RK54HKc/cMuDX9Cf/BGm4Z/hj4hgPRbtcf8AfNfzxyHd1r+hb/gjOMfDbxH/ANfaf+gmpe5Mtj9qaKQdKWmZCN0rz74leAbf4k+FLjwpeX11p8dwMGazfy5QPZu1ehYzSYFAH5lz/wDBLP4E3WujxTcatrb6mrbhdm6Pmg/72Pwr7n+FXw1tfhV4Vj8J2Wo3upxxnKy30nmy/TdxXp1GBQB//9b93/E2f+Ec1DHX7NL/AOgGvxJurP7TPI1w2872+99TX7b+JTjw9qB9LaX/ANANfizO0E0rsmFO9s5+pr6zhpaVH6fqfD8X/HRfr+hxuqNLZWFw8B2bEJGPpX4/eMdWk1nxFPqOoSGWTzGAJ7YNfqD8YvFE+geGrma2HzBSpA75r8n3DXd5JcgZOS2PcmubiHFpaI7uGMH73tj0e30aZvDEd5EATu5+lfS3wsR4/CFxLCu9NhG31PevEvBbwSeHngdsk9Qe1dboXiF/D1q+nWchAY9M8c18LOTep+h8t5XRb+EwRfjzpWiXkGLSe5Uso9Se9f0c6V4f0LTYIbazgVBgYx06V/N3Fe6jpPiSy8a6J81zZSLIO+SD3r+hv4ZeL4/Hfw60vxLKyfaZIh5ix9mxXVRgpbnbTVkeoNptlNOY5kDKo6VwXivwB4RvtPur+6sY3IhcgkfxbTiu2gmit5UEuWeQV518bvGEvgj4c3upQMA7KU+b344ror0oxgmXzH4HfGnw5cLq87w7VjEpyB354rzXR9Gnk1CKKUBl4wcdK9l8X63FrN8FtR5rSMWbdyKZ4d0uO0zfzYIweD2ryZ7kKVnc7nw58RLLSrxPDHi2dpbNABCufkUnvj614Z+0BcC98Z2mm210s0LYZSvIAx0rj9Wu4r/xBcSz5KZI9h9K8ulaQ+K7aZ3LruwMnPFb4X4iMdW5qXKffHw9vZrj4IXttM+4Qu38q/O/xYAuoSMvO45r7v8AhhfR/wDCttVsFI2szdfpXwX4ulSPUpIewJFevHY8NyOKbqa/oY/4I0j/AItt4ib1u0/9BNfzyllLEA1/RP8A8EbYwvwp1+T1vF/9BrJ7mTdz9maKKKokKKKKACiiigD/1/3d8UOqeHNRdugtpSf++DX4YXesQySzNaYY+Y3D8Dgn1r93tUso9SsJ9OlJC3ETxEjsHBB/nXxi37Engly5bUbjDMWxtHc/WvdyfH0sNCpGq9XY+bz/ACytjHB0Ve1/0Pw5+MPxW0i18Qpol6N0JUiYqM7TiviewtV1LUZJ7QExs7Y+nav6ONe/4Jc/CvxH/aDX2r3fmXx+9sHyfT5q5TSv+CR/wq0ojy/EN8QP+ma9v+BV4ubVJYmV6Z9Fk1KOFw3s6nxH4W+FoXsmntJlZN/3c8V095ppa18+MHzBxiv3Q1P/AIJZ/C/URFt1u8jMXdUHP/j1SD/gl18NBKJf7evOBjGwdv8AgVefKg3FJHp0MRGK99n4heH1u4Ixavn94ec1+iH7NXxys/h0p8MeIgFsyN5frjFfVv8Aw67+HAn89dfvR7bB/wDFVqJ/wTS8AIoB168J7/IOn/fVR7Gotkdix1LuNl/a3+DqApaXTOR1z0Ffnv8AtEftAar8TNcl0zTpCNJQ4X+6fev0BuP+CY3w4kXZFrt4oJyfkH/xVTW//BMz4bwfK+tXjp/dKjH/AKFSnTrSVrErG0k9z8bdHsBI32e0fcc53dwPauj11I9J0OfySGmkACqOee9fsEn/AATf+HUGDb6vdIR3Cj/GsPW/+CY/gHWbiO4PiG9i2D7qoP8A4qs44WpfVETxlN7M/DUaFq0KlpIsi47/AFrzfXfD8+garbXN4QuX4H4V+8Un/BJ/wdKzE+L9RAJyBsHH/j9Zl/8A8Ehvh1qjRPf+K9RkMRyMoP8A4uuylRcdzjq1lJWTPyf8L3MsHgS8uI22rIze1fIfiBN987uepr+lKX/glt8OX8P/APCPp4gvUj67ggz/AOhV5tdf8EbfhTdOHfxPqA/7Zr/8XXWnY5mz+dEQ/N8vNf0X/wDBHFdnwl11W6/bB/6DUEf/AARm+E0ZyPE9/wD9+1/+Kr7w/ZY/ZX8Nfss+GLzw14bv5tQjvJfNZ5lCkEDHYmoa1uQfVVFAopgFFFFABRRRQB//0P38oyK5rxhf3Gl+E9U1K1O2W2tJpUPoyRsR+or+a7Wf+ChP7Q1tczwQ6s6hZHUfQMQKdtLkymo7n9O2RRkV/Lbb/wDBQP8AaUlO8644HpmtK0/4KA/tHSXXmTaywj9KdOPPsZuuj+oDIoyK/m2039un4/kG9uNZdoRziqGo/wDBSb4pQZWPVJCw4OPWrjScnYX1iJ/SxkUZFfzz+H/2/virqbwwtqD5kA6+9etT/tZ/F6a1ElvqbKcVv9Sla9zN4yKP2+yKMivwU/4bB+N8Dt5uqMRT5v2vfjdMitb6owzXLVg6e5cMRGWiP3oyKK/CGH9rz42ROpuNTcivX/C/7a/jS1UDWg84HVsiud1l2Nedbn6/0V8JeDf2s9B8WOsInaCTuHwBX0HpvjS91CD7RZziZT3U5qXiUujMXiYp2PaqK8nTxNqEpOJcEdqo3HirVkBVJKz+uw7MzePgujPZqK8NXxbrRB/eGvRPCGp3Wp2LTXbbmDYrenWjPY0pYqNR8qOuooFFanSFFFFABRRRQB//0f3J+IgP/CAa6R/0D7r/ANFNX8Zn2CW81W5NwxA8+T/0M1/Zt8QjjwFrf/Xhc/8Aopq/jWuddlGqXcZiWNIp5Mtjr85rSC91mNbodBbaZo6IAzH8q6CHw9p94h+ysRgeleN6h44d5SlgFjzwMjOf1qey8c+LrPeYlDRLjLCM4I/OtMMtzlaOh1TWNc0NZLKKPfHyMk15K0Ut/eiOJPndsmvbvEWp2epaLDqlgNxl+V19D3ryiySWz1qOWD7p5Oe1Z1JOEwirnr/gzTdblvIZwQixHnPtX1RoWpSXWbZmyw4yK+b9FvcW7JHwTzkV6F4Tvr6xnR88SPjmvZw75o6nHV0Z61fW0i5JHWo4rgxxLheldalub22eX+6P1rnIo2UbZunalWwqmFObTL9tOtyQGGMV0lkyyS+SF8wDt0rAsY4BJtc9TxXUokDXC2kPDYzkHms45fF7ouWIZvR21spDQErJ6jjFemeDfjT4x+Gdyk1xJ9ss8jgkgj+deX2jSxQkueeR71opam9sZDMNxIOBWWKy6KhdIyU22fpb4F+Meg+PrVL6zYRTEDKZzz+lenPfJKm8H61+Jvgzxfq3gjXXa1l2HdwpPFfob8M/jIviCFbbViiue44r57EYJrVEuNz6iimQnr1r2HwAVbTH2/368BsbuGRPMRtwPTFe9/D0D+yGI7vXNhFKNW0jpwX8Sx6DRRRXrnrhRRRQAUUUUAf/0v3K+IhX/hAdc3dP7PuT/wCQmr+N2/s7S9v7m2ZhteWXH13mv7JfiAQPAutFuR9gueP+2TV/HlqIt31G4aBB/r5Onb5zW1JXTRhX6HIeHfCVnfX40rUI8Sq/yn/Zr9G/Cd18ItDisfhzPZW92b2Jw0pALbghPX618SJbSSYu4yVkxjcOtYtzNq1rfJd/aCJYjuRgeRW1Jezu5HK5nMavZxr4q1HSbcmNIbhwI+23PFZRsZrRGMn3yflzXRTXk2oa39vlj+c8Mw6k+pr1nRvDEGsyrNqC/dAwKy5PbS90amo7lbwfpxj0oS3Qy7dK9V0fTTNsAX7nzfjW9D4fs1jjSNMBFGAK7PRtONrHvKjmvWoe4rM46ru9DX8NSBtPlil7nmuU1a7WN2iVfuV1N3bRadbF4TjfyawyovM4x8w710xmrmK03MGPUYzfWoPG4E/lUeo+J47DUxcR54BqDWdOe3Ec0ZGYwR+deWatNI9pOWOHX7tVVk4LmYU4+0funV23xRd7kpJnG71r3Lwd4yt9Yh8qzb5+461+b2sahfaTYNO7neWPT616Z8FPGN9PrIRGIHGa4vrSq+6dE6Lgj6x8ZQ21jqK3d3wx59K6zSfEGp2dgt7YSbDjjFZvi/RV1vRVuJmw6/N71y+kOyWPkSMQiLgVq6UJLUz51sfWPw7+PXiCxK2Woy78nAyBX6y/AzWW13wl9vJzuf8ApX869lrJjuxtb5lbiv3M/Ys1SbU/hg8kxyVlx+leZicPGC5onRhE/aXPscUUUVxHrBRRRQAUUUUAf//T/cr4iNt8Aa6fTT7r/wBFNX8bi6zAL65Tv58v/oZr+yD4k8fDvXiP+gddf+iWr+Jpr1ZdbuoE4YXEv/oZpObjsY1ldI9nh1LMPHAqolg+oXHmAnHvWNpu66C2w6967+NrPT1Cu3NdUJcy1OG2poaZoMK7WKgketej2UMdsq7SBn0rjtOW6ugPswLA12dtpE4CtMSO9Z1J+z1RtyXR2uk3RkODz2r060jha0yxxivPPD+nbThOea9KjsHdBGR1qqeJbM3TRgarIkoWEciqC2AaMpDwRXTtpsrSiNUyM9auSaebXLBe3NehQqNvUwq07I8V8QSTWUcjPkjtXyr4x8RTveMtsSB3Ar7V8Q2fnWxAXJGa+Rtf8MNcanPHb4EpP3a1xlR8pnhY2keH3c95qVyIpQWTPNetfDyz1jTbuO4sYMRk8kitrTvBws5YraJftN3Lx5EfzSfkOa77VtH+L3hfQjc3Ph+8jsYfnacQsFUdsnHFedQdveZ2VVze6fSfhu+bxHp4tbwbZANuOlZWo6dJbwTC5UoUyB2yK+fvhl8Zf7S1FbHXSLeXOFPTIr6q1uX+1tGlmhPmMiEr36CvRhO5xTp2Z8wwXLRa2IlJxur96v2BLo3XwtucnO24x+gr+e3Ub02eqNLJlZFJJFfuz/wTJ1oa18INQuA27beEf+OiuXFP3WdeEXvH6VjpS00/lTPNTdsz83p3rzT0yWio9wA3E/WkSRHAKMCD6c0AS0UUUAf/1P3G+JQJ+HWvgdf7Nuv/AES1fxCSWVzceI7uOAEN9ok5/wCBmv7ffiN/yT7XvbTrr/0U1fxhtCk15cGwX98Z5R/4+aifmZ1NjpNFUafCI3+aXFdVpmjS3k4ebkZzVnwv4MvZlWS5Hznk17Np/huOyUKRk10RdlocnKGiwC0gVLdMkV1cGm3Fwcvxmm28K2nzDFWYtfSKTYyVlOLqPQvmR1WkWy2Tjea9PtESWIMteXW2s6eI/MmOK6/SfEGnsAI3roo0GtzOU0dhHbbDvPaob2NZ4GZa1LS8tLuAhG5rKaMxllHI7V6VKMYO7M2+ZWPLr0HzWjb1r51+JOlxRT/abZzHdH7mOh+pr6a1GArdEsMc15P4t0W0u7kTyEkgcKOhp4lcy0Iorkep4X4O8PahpfiKPVnvMXLkfvAclM+lfpL4r+J3h3wL8Fbr4arfDV7zUYczSOCQgIz1PvXwBb6athcYBLODnHatC2utP1gS2erytHN0x13D061zcnNDljub865uZnyDpV5NaeKDLGBIbeYsPTGe1fph8P8AUYb/AE2Nyd3nKCR/d9q8r0r4Y+DIQbu3g37hnJ4+au2tzbeHnjjibYGx8o7U4JwXvGNSSlseN/FLSDouvyTyjCSq22v2J/4JLHPwW1Un/n/b/wBBFfj58ftYt7q3tWRsPwK/YX/gkwuz4I6mw5zfE/8AjorKvNONka4Ve8fpl41v/EOl+Fr7UPCll/aOpRwu1vb7lTzJAPlXc5AHPqa/BP8AaE1T9rr9m3xl4W+Pvj/xBI0WrXyJe2CPuitkY5MRwSpAXIyMiv6Ez1r8mf8AgrH4l8JX/wAFP+Fbor3fiG4dbq2iiUN5ccJ3SO5zlV2A8881wnom/wDHH45/Fb9oKzh+D37JTCW/e3jn1jUw3lw2qyLlYw7YDOxzkLnGOa+l/wBjP4dfFf4ZfByHw58ZbhrnWxcSvI7SCX5Sx24YE9sV5f8A8E09O8IxfsuaPqvh1M3V2WN7K3+seVcD5j6AYxXuv7Qf7SXhX9nfTLC81/T77U59TmEFtDZRhyZCcAMSwwPfmgD6OzS18MfE39q34i/BvwevxK+IPgaSLQgV817e6EtxErkAF4zGi9/79fUvwu+Jvhf4veBrD4g+DnaSw1CMPHvADD1DAE4I+tAH/9X9yPiMM/D7XgO+nXX/AKJav5C/C3h2O2u59TuDn9/Lx/wM1/X547APgjWQ3Q2Nx/6Kav5NdSlt1up7aD5VE0nT/fNRON7GVV2Oy03U0S4DxJ8tdjFNJOdw715vpMkECg9a9D0y+RsYAropq+hzNmwtncTHriph4cLjf3rWtJozhia7KwEEpUA9a6IUmibnkGqaJdom1KyrKe906QI+a+nY/Dtvdjc1c9q3gWF0LpwavVDUbnP6LqFylr5oJ6V1On6w9xhXHJrirVJtNuPsci5XPU112npDbXO9eQa1pS5nYU48quUPEcohYe9eYauDNIoAznqR2r0jxwFj8u4Xoe1cgvlCzkn+8SOld8YKxxSlqcHc6Iv2Z2B57NVX/hGLK+vI7lV2OQAWrotW1axsbZGlxt7rmuOv/F0cO3y32xjnArOSUdUVzM7qSxn0GCSN5lcIu7aK831/WJLu1Gow5UJxj1rTsLubXLp74EsrptOfSsvxpPZWWlGFcAIP1ry69fU1jA+bfiR4ll1a8hgJ4UY/Gv36/wCCRcxm+Bup57Xx/wDQRX85OofadY1J7rG1Fbiv6Of+CR0XlfA3U+MZvj/6CKylK8bnTR0kj6w/as+I/wAdvh9pOlS/AzQRrV1cXAW4DcqseenHQn1rxr4cfsl+L/EuleK/iD8dbyO/8WeLrGW1iTafK0+KVSBGgz1HGSPSv0Z79KQrzkVgdp+Kn7KPhH9rf4MeHtY/Zx0zw/8AZ0a9aS312U/uYImIyRH/ABZA45r9eI/B2n6npmmxeMYodTvLBEPnOgx5qgAuoPQkjNdmQOvrXxh+21+1VZfss/DA6/bxrc6tfN5VnC+du48FzjsvWgDxz9vH4oQeONMH7I3w+t/7T8S+KSkcmw5WziVg7SSAdgBX1v8Asz/BtvgJ8GNH+GMtwLuSwjxJKBgM7cnAr8hv2dv2sf2PPgrcap8UfFPiC88QeNtajaW6upraXKsw3GGI7eFzxniv1z/Zm+Nsv7QnwntPigbL+z4r2SRYosk/IpGGOe5oA//W/c/x8ceBtZP/AE4XP/opq/kZmuFN/cE9fOk/9DNf1yfEE48Ca2f+nC5/9FNX8cer3t3FqVy0bcCaT/0M0GFd7HQ6hr1zYH5DgV3HhfxM15ghh0r5X8T+I9RkIjQlfevQfhnqE8yr5hJrai9dTmadrn1pBqs2Bg12mi6zMJBuNeU2EgcADrUet6/JoMBmdsY5r14ygo3kzJqXQ+xNB1Yz4G4V3nledFyM1+a+h/HOSHUFthJ3r7X+H3jkazaq8jhsiudyhV0pu5cVJbljxHpEauZVGCK5OK5eNgK9P1mWKaJnryO4kK3O0dCazpvkk0zWTurM6nxZaW8nh5byX+EZrwq38VWTSiwyMHIr6A8VtFN4KMaj5tvWvzv1G+utH1V5S+4BulazxFloc0qd2TfEu51W5vWtLKQgE8VL4f0HUrzZDf5ZMD5q0Ld4vEd4l2ybQvUetdfcaiNHtxFEwHoO9carNyfNsEqbSsjvNHtrPQtOaOM9R1NfOfxY1OeDS5JrduGY10Wp+Jb+a5jiSYlW4IwKyPi+um2/haIKuXcDOfU15tWpzS0OqmrLU8Z8O3Ud5DHaRjdI5ANf0t/8ExNAbQfgrdxSKVMl0W/8dFfz7fszeAT4u8WxmVN8aMCR2r+pn9lnwzbeF/ABsbVPLUyZx+FdEasWuS+oU1+8Pp8UUUUHYFcJ4y+G3gT4iJFF430u31NIMmNZ03bc9cV3dFAHgx/Zg/Z+6nwnp3/foV654d8N6F4S0mPQvDdrHZ2kP3IYhtVfoK3aKAP/1/3N+IP/ACIWt/8AYPuf/RTV/Ho0cEup3KyAf66Tr/vmv7CviD/yIeuf9g+5/wDRTV/Gtqk8kOr3BX/ntL/6GaDCsr2NHWPDdlOA4Ra1/D+lw6cgKKBj0rKi1D7REFLcircGoYjK0QlqY2PXPD92ry4YisL4n6Tf6lpTPb54HauS0bUzHcbs969/0S9stUsRaTHJIxzXrYe000yJOx+b6C50zUh5xYEHrzX258JfGflLFFFKScDvXSeIPgvp2ufvIFUE81d8L/CG38PyiZWwVqqVJUW2KVS59DWuvzTW2Zstkd6wZbpbm8CKOhqr9qFtGIEIOBVmxtpDcC4I+9WcoXk2S5nT+IUmbw8YgT92vkLUPBs2p3ErRrzmvsu6kS4sxbEc4xXimtXbeH9QkWUAZ6GuSroVF3PnSHR9V0a5IcNtBrVvttxEk0uCe9dJqWufa5n8zBB9KxIdO/tkLDZqzu7YwozXBKvymnLZXMCwt0uNT8wxgog9OK8W+KfiObVNY/s6NvkT5cA8V9+3nwdv/C/gZ9Xvl+aRMjjkcV+aUtpLeeLHt0yzmbH61yU5c0my01Y/Wb9iDwlaWek/2nLCu9gPmxzX7xfBJg3hp0xjD/0r8p/2W9CbTPClqJEwSoJ4r9Wfgx/yBLgDoJP6UU5XrW8iaL989nHSlpBS16J2BRRRQAUUUUAf/9D9y/iCR/wgeuZ/58Ln/wBFNX8Z/iCRRf3O3/ntL/6Ga/s+8X6dc6v4V1PSbIZmurSeGME4BZ42Vefqa/nC1L/gmJ+1bdXc80VhZkSSOw/0uHozEjq/pQzOor7H5tRXTo+Aa6m1vEZACcZr7fb/AIJbftcbsjT7Ej/r7g/+LpV/4Jd/teIcrp9l/wCBcP8A8XWFpX2I5H2PjW1Cg5Wu30HW0sZgXfAzX1laf8Ezf2toUxJp9ln/AK+4f/i6JP8AgmX+1qz7lsbL/wAC4f8A4uuilWlBoiVNvoeR2/xDhhThwcVFL8RJLo+XEevpXutt/wAE1f2rVUCawss/9fUP/wAVXS6f/wAE4v2mrdw01hafhdRf/FV2YnEXXukeyfY8F8N3NzfyiSboa9kiu4beBVGMiva9J/YP/aEsYwslnajHpcRf/FVut+xH+0CW/wCPS2x/18R//FVth6seX3nqZ1KUraI+YJdTu57wRxDivNvi7MBZxIMCXv6195xfsU/H2Bw6Wdtn/r4j/wDiq8x8ffsEftPeI5vMsbK0YAd7mIH/ANCrjxUk/hKp05dUfmRea7a2ZWAtlz2r7U/ZH8Cz65qbavf27Nb8FWI4zWr4T/4JhftInxKl94qsrRbYEZxdQscfQMTX6vfDP9m3W/h74ej0aztolIAyQ6/414NeFR/CjStGXL7qPl34/wChwr4FmhtE6IQB+Ffhh4J8JXl98V/spjLfvs4/Gv6fPiH8BPGHizRn0+2hjLFSBl1HP518AeBP+CfHxw8P/EWTxJqFnbC1L7lIuIycZ9A2aWHhUV+aLOdKolblPor4W6NHpHhm3UrtIjFfc/wW/wCQBMT3k/pXjWnfBbx3Z2C25ijyoAxvX/GvoP4aeG9W8M6K1nq6hZGbOFbcP0q6VOarqTjoPDRmql5I9JHSlpB0pa9U9IKKKKACiiigD//R/fyisrW9QOk6Rdaoq+YbaF5ducZ2KWxnnGcV+bkH/BQq6kuZYZPDAUxsV/4+uuCR/wA8656+Kp0Le0diZSS3P04or8kvEX/BTTVtDm8tPBvmp/e+2Y/9oms6z/4KlyXMbSyeEdgTr/pmf/aVZwx9Gfwy/BhzJ7H6/UV+Qmm/8FQ77VLsW9p4N4JxuN5/9qrpB/wUh1YzNCPCHK/9Pf8A9qolj6MdHIqK5tj9V6K/L3S/+ChWu6vcLbW/g5t7HH/H1x/6Kr1Gy/a/8TTttuPDHl/9vOf/AGnUvMsP/N+DOmGDqy+FH3jRXxFb/ta6rPci3bQAvP8Az8f/AGFbL/tR3qhsaJyvbz//ALCs5Ztho7y/B/5Gqy2u/s/kfYlFfB+qftkalp1u8q+HhIy9B9ox/wCyGvJrn/gof4gtHIk8HjaDyftf/wBqq45lh5aqX4P/ACMqmEq0/jR+pNFflgv/AAUevLolbHwpuYdQbv8A+1VjH/gpldx3X2WTwiODgn7X/wDaqv8AtCj/ADfmcfOk7H60UV+Tl9/wU2is42ZvC4yPW7/+1Vl2X/BUywnhlkuPDGwopIxdg5x/2yqvrtLuJ1YrqfrvRX5B+Hf+CoOpa7JKzeDhHCmSH+25z+Hk196fs7fHJvjv4Um8SnTxp/lS+XsEnm549dq06eMpVJezg9RxqJ6I+iKKQdKWuksKKKKACiiigD//0v3W8ZYHhLVGboLOfP8A37av51bKXSbm8mZJefNfgf7xr+iLx+SvgXWiP+fC5/8ARTV/K14K8241i4luboogmk/9DNeTmlNSSbMK0XJpI9i8ZJDNbMsMe/Ar5dli1WW3uba2UxZPX8a/RXwR4G0fxCE2TecW6ivZrz9lnwXrdqWKtEWGG2nFfPU66pnq4bAuaufmn4D0nxC8tjb2UJmYt8xAr7A8M/APxJrOu/2pezPDGACVAGP5V9ifDf4B+DvAkAmsovMdehY5r2OeG36xIE4xwK4cTjNT2MFl6TfMjwrwp8O9J0WyMrKGlToxUZzXTPocMgLjgn2ru5wBGIkGMVUktwykquK43i2fQ0MLTS2PJn0KGG/D7u9ak9nEsh285q/eWebncc8UpiVD8xrGeI5jpVOmeYeI9DDgunQ9a8Y13wjHcsCBweoxX0tqMZKkE5FcVLaxCbfjNdVHFW0OevhITWx8lXnw81O2vT/ZSkK33jj1rk9R8HxaZL5c+TJ1Jr73txayLsKKAeDXhvxG8KwxytfQDPtXoUa/PKx85jssio3ij4f8VeArvU1kaCV0GO1eeWHhN9Gje1vsyow+8etfWT2c01vJGFwTmvOL7RpHU2N8hKOcA9+a9ukrxPmq+F5TitGkk0y1FnYxgxSAgknpX7l/8E8bGGz+Elz5T791ySeehwK/B3xMdS8FkCyXzIX+Xntmv2j/AOCW15qF78INUmvs83x259NorbB0+Wtcwpxsz9QhwKWkHSlr3DcKKKKACiiigD//0/3L+IYJ8A64F6/2fc4/79NX8nnw30nXLzXLmGVS8ZuJO3+2a/rM8ap5nhDVkxnNnOMfWNq/Cf4O+DY1vLhngVf3znLKP7xrw86xCpRSfU7cFhXWlotj2b4T+GItKsoJoU2uQM19XWlwFtwpHPevPNJtI7aNQgA2jHAFdfauW6mvgpYr3tz7jCYFQj7yN9L6SNCimp4lMqE1nJGAc9a3rFdsRJGayctfeHKEea0TNSJPM2tWktrCymsK+mMTmQnFT2OpB1zSlZbnRGlK2hlX2np55IFZN1YR4GBzXRXV0pkyaqRlZ5cGiMb6omMGn7xg3GjRSW545rgb3S44CWIr2NipjZj0UV5hrt5Fchlg6+1Ebt2R0SikjzHUGeJyYzjFZc6pf25S55p+p6gLJjHMMk1g/aAx8zdhW7V6FKfI/eOGrBNXZ5X4xjtdKRjbYBr5x13VtQuIyYzgqcivo/4iWDyWT3MfQCvl3R/tGo6v9lblQcEV9Jh6nLHmkfNY6inpE4Lx5fXGp+DpPmxNGRg1+xX/AASPlv5fgZqX29izLfHGfTaK/OLxd8J5tU0k/YvkBIYiv1d/4Jp6Quh/CO/08LtKXhz78CvSwNaM6loni1MJUh78lofpGDkUtIOlLXsmAUUUUAFFFFAH/9T95tdXfot4h7wSD/x01+XGmafHZ3kwhXA3t0Hua/UfXTjRrwj/AJ4Sf+gmvzCt7zyZZXcdXYY/GvjOLJ8rpr1/Q+u4XoKqqjfS36nRWpKxlnOOa6/SpYGj5rirKGa5jLjoT0rqrNRbctxXxF7s+uq2jGx2WnQtPNwCRXR6jBJBbYhUjjvWDputWdsu6RwK+T/2k/2qdD8AW5020nzcOMDaDgGvRw1B13ZdDwMRPlkmj329nAlKTsKlRE2Aoa/JLwD+0j4r1jxnFHqsoeCZuME9DX6ieDNR/tu1SRT1GaMdhZU0ejh691Y6eReOaSEFCHFafkxxyYbmnERBiFHauOlzpWNmru5ymsXTpYTEHBxXn/ga3fULljL8w3GuR+NPi2fwbpct3cE+WQelfEfg39rXSvDmsbb+fbBI52t6V34LCTm7pHLjMQoqx+k/jPwdA8DXKr0GelfJWs/ao9T8tciIH8K9u8K/HDQPGunlba5WRXX73OOa8l8Rajp097IAw2knBFdFWg4y1OalNzjqZvi6Kefww5s+cLzjmvknwVb3Nz4mYx5yr4NfV2jy3F5bz2EZ3rg14FoqwaH48ZD9xpMEe+a9T216fKcsqClI+qNPs5DYCGUcla/Qb9jTThp/ga/jxjdck/oK+E0eOWJPs/IIBr9C/wBk8bfBdyCMHz/6VpkldvFKm+zJzfCqng3LzR9VDpS0UV9sfFBRRRQAUUUUAf/V/ejXOdGux/0xk/8AQTX5hzWpt3e6b7pduPxr9PNa/wCQRd/9cX/9BNfmtdxtO/kH7pc/zr4ji9e9S+f6H2vCjahWa8v1Ox8L6VJdRfa8fIa6S40f7RMEUcV0PhuwWx0pUI4IrTtkjM28DgV8pClc9GviXJ2RmDwdYpbB5iRxXyR+0D+y1ofxL083ulAC4Ud+Oa+7ZZ4Hh8sjtXLg5mYOcL6V10q0qDvE4n73xH47/Df9jvxPo3imK41VgsMbevYV+nfhbw9YeHrJbaNslFxn1ruLiCKebyo1BHrUD6W0TFSAFAzmrr4mVb4Vc6aTSPPNW1GW2uT5fSiDUySok6sOtN121juSZYTwpxUEWnSLbBh8zAcGs48yWx3RqLueXfFbwlB490G60qQ4dlIXNfkaf2Q/FOoeI5dJaZQgkJU7h0Jr9gfFMt1YwvNk7s9q+XfEGvXOkasNU3ncDkgda93La0oxfKePmD11Op+F/wAFdJ+H3hNdFvJ997gdDmman4DuctKc7F5ya3PB3iL/AISzUo7xSd3fNe66nZW72r27DgrnIrgxNeTquMkduGivZXieIfCLRLe68QPpbc7xjmvAfjR4XHgP4oSW0vCtlwa+o/AQTSfiRawQjAkcCvKP2/7A6PrdvrVvgF8A496vCpyepzTnyS1Os8C3trdaPDcuckgCv0o/Zh2f8IldFOhm/pX5FfA3VjrmhpGp+4vOa/XD9l3H/CHXKg9Jv6V15RDlzFejFnM3LAv1R9Ok7RzXx/8AE39u39m/4S+NP+EB8Y6y0eoKwRxFGZERmOAHYHAr64u7c3VrJbbynmKV3L1Ge4r8mP2v/wBi3wTon7KHiT/hGoBPrFtKdTe9m+adyHDOC/J+7nvX3h8IfpxrXxI8G+HfBD/EXV76OHR0hFx9oYjbsIyCPWvMvgR+1F8Iv2j11CT4V3st4umOEnLxlBk9ME9RX5Xfs6aX40/bk+D/AIW8AX+/TvBnhYiPVjI3zX86fcjTbnKKuc5x1Ffq38Gf2ePhZ+z1DqQ+HdounwahJ5sqg4RcAD8BgUAe+0V5fefGv4R6fenTb3xLpkc4OCjXUQIPT+9Xo9td297AtzaOssUgDK6EMpB7gjgigD//1v3n1zH9jXf/AFxk/wDQTX5pq00lyMDjef51+lmt/wDIHvP+uMn/AKCa/Oi0lhKEjG5Xbj8a+G4xbU6NvP8AQ+24Uf7qtFdbfqe3WFwq6VGO+2otOdixDdM1xC640ForScIK2bfUi1uLqD7pr5SFVpHdLDyhJs7dn9DXPajcLAMK3NQWupXEzAAday9fjnLhIvvHkiq9rzXFSprmbqGhBNJHD9px3r52/aA/aO0j4O6YNPuk8+5uF3qM4wPyNfUWnWMsujtHIPmCk/hivwL/AGy/FOu6p8QZV1KIMtqxjjAz93NexlWH9ozzsbW5PgPXv+G/9ThzENDSaLPUykf+yV3Xg/8Abz0nVtbh0rU9PFqjEAjfkDP1Ar8kb3XwkpjMYBPIAzWLPf3l/OLmCLynToVz2r6WOVRd2zxaeZ1VUtJ6H9IWpalbeL9AbX9JG6EgHrkV8OfFjWU0q4e4cZ3DGPSvef2aNX1P/hRls2pKCZE6nrxXyz8d3kmMv2Ubsk/hXm4WnyVHA9jFz56akzt/gp4wjguBNH82eoz0r6z1Hxcv2USoPvD1r8mvht41v/C2oLDcAFSea+s774h77CJ4z8r+lLG4K757E4HG8q5Ln0B4U1MzfEbT5SMEyDvXIf8ABRedY9EglJ+YuK5/4aanf6r470y6hHyeYATWf/wUXvpLmW2sYvugKWrnwqtLlZ1V3z+8ea/sv6pPPp3loO2K/cP9l6BovCFxv6mb+lfhV+ynNbWyETtgV+737NF1Dc+EJ3hOR53b6V15XB/X1LyZGaVF9QcU+qPfda13R/DenSaxr1zHaWsQy8spCqv1Jr8+v2j/AI2Xnxf1yX9lf4I7L+/1i0k/tLUVO6KytyuSeOGZ/ugZHWvqv9oT4Jaf+0D8NLz4aarqFzptve43y2pUPx2yysP0rjP2af2Tfhz+zFo1zY+EZLrULy+x9ovr51kuJMfw7lVQF9sV9qfFH5/f8EpvG9r4N0Lxr8Gtfmjjfw7fNM0rkIShyrEqegGz171+jvxK0G1/aW+C95ofw+8QPpkWqq0ceoW67yu0lTgZXPI9a+XPEn/BM/4Ya38UdT+JOleIta0ddZbde2lnLEkUuTkrkxltp7jP4195eFfDPhL4XeD7PwvoapY6bYRiKPJwOO5J7k8n3oA/Of4q/sh/syfCT9nLVIPGcon1C0snK6jI+LiW6CHYQAScs+OK9N/4Js/8LHH7ONqfiEZj++f7F9oz5nkfw5zz9KxP2hP2GvDXxAbUficPFWtC9sxLqMFrJNFJY+ZGDIqtC0XKZHTdWx/wT3/aP8V/tCfDfUx4xtbe2uvD119hDWqFI3UZAO0kgH5e3FAH/9f94/EDiLQ72U/wwSH8lNflz4bvbfW7+aS0f5w7c9upr9N/G0nk+DtXm/u2c5/KNq/nd+Gfxtu9P8QzWbuTC0zgL/wI18jxPh3VdNpbX/Q9/I8f9XlKN97H6AeJtYksrExJ/rB/Ea4Lwv8AGWRrz+x7tl44HArJ8R6+11pguC3+sGQvfmvi/Vb3VoviDBBp5bDuMgfWvlfq62Pr6+JUkmkfrj4Z1036GRSOORWzdag8sweQDjivKfBlnd2mlWzykguozXpOvziDSlaEfOOtc3IkZTj7WKseis7ppjyRnrGf5V+Mf7TXw8Q6zcarNHveRiRX646LrgvtOFvuySmMfhXwP+0asVgZZb8g8nGa+gyduDueRiqNj8WPEnh17XVcuuCx4Fe7/Bj4X2OvavHHqUe5G61U8bLo+pahHexMMg9AK+kfhBZrYSQ36ghcDnHQV9HVxvLFnmwwUqslaL0Pu3QfDlnongq20PT8xwxqQQCfSvlH4saRp8dnK0HzMM8mvpnVfF8dtoCi1G4EYJr4T+LPjFbQTFpsbugry8CuapzSOnMJclPkR83wzBtb8sjo1emajr8luIbSI52c15l4clbVblrlkweopNYmmtpWmZvmPGK9KraUuU8uk3Fcx9g/B34hsvizSLZCAGnANdt+3DcSa14gSzUAxmMHdXwF4c8UX2j6hb3lsxWSKQEY+tfd3xLvY/Gnga01ssJpPKG+Q8kHHINeMqTVS6R7Lqe4fPH7P1/b6PqE8WrS7I0BIycV+7H7DPiyx8V+A9RlsJPMjguimfwFfy2+M/FOoaffy2WnTNFgkErxX79f8EeLia6+BurTTuzsb85J/wB0V9FgsIoyVXqeLisW5QdJn6+DkUtIOBS1655YjdK8X+PXwhj+N/w6uvAUl/NphuMFbi3Yq6kdCCK9pooA/P8As/gT+1zFpH/CAXnxEgl0MwG2aU2kRuWiK7SpfZuyR/FnNfRPwC/Z+8B/s7eDT4Q8CQsqTSGa4ldizyynqxJ9a93ooA//0P3P8eqX8D6yo72NwP8AyE1fyd+Gt1p4kmjkzvW4fH/fZr+szxkpfwlqiL1NnOB+MbV/MTo3w517UfiATbJvzcMSFGeNxryM2qckUjSlDmnE+6PhZ4al8VWJlvgxVFGAfpXYaD8MtIHiJdRntuUbqwr6K+FnhOTQ9PhgdNpKLnIx2r1jUNDikztQAewr4WUeZto+2pYjkios4BLBGiSK2CgKBgYqOezYvtu+QelbkVgIrnZggetbN3pi3dmY2O5x93FedU92Zu8VZaHwD8evi3rvw61Cay06zkEIj3b0yP1rwXT/AAxffG/So/EGt3DiEnldx/xr9FviD8PtN8aaDPpOsKVMilNxr408KfD7WvhNqcmhXgZrCVso5zt/PpXvYOslGxphacakrzNPwn8IvA/h2HYtnHOcZBkUN/MV0GuW2n2unNFaWsMW3+6oH8hXc3rWjxRrCyhV6la8m+KGs6XoukTTJOqsUOMsMniu5WqOzPp3CjRpOUT4M+Knxxk0XWLrQ43OIiBhTXz9d3uu+O5t0KO0a/U9a328A3XjPXrvWZsEtJnnuM19GeHLfS/h7bRy3bJhxgjiu+MIxS5T86x8VKq2eHQae/hnSRcHiQDkVw+q6rJrkqYQg5616p8S9WtNZvN+mkFG54qp4O8Gaprk8caR4X1IqZVFE4eS75YnA6b4ce8mEaBtxPUZr6m0jSL7QfB39m3TOyOM8k45ruNC+GEunYEUYkf/AGRmvUr/AMLapcaL9jubZlOOpWsI17yOpwmon5geO/B1tczyXVvGc8niv3I/4I/WzWvwQ1eJgVI1A/8AoIr81fFngHU7fzFt0zmv1o/4JfaFe6F8JNUgvBhnvmOP+AivoMHO+h4NeMufU/TmiiivQMgooooAKKKKAP/R/d3xTbm88NajZqcGW2lTPpuQivyU+GHwttfCOoySTFppjKx3Yz1Ymv161RGl064iQZLROB9SDXyfpXgzWV3R/Y9jbidx+tfNcQc7cFBX3/Q9PLoxbbkzU8ORuiKw5PvXoEsQeLpVDStAv7dRFJCwb1xxXWLp9yE2tGfyrxKOGm43cWerWqxWiZ5degxSnripbWSNY9zmuxuvD93MxxEfyrDl8I6qT8qHBrzauDqOT9x/cawrwsrs5O+ijvpCpOBXmnie1tltyuqRCREOQete2S+EdXjXcsRJrktb8Ga9qMZgitzgjqalUa0NoP7mdtOtC2kkfFPi7wXaeI5jcaZcSRqP4VyK+bPF3wUmvEZtTvZSg7NnpX6oaH8IrqzQvfRPuJ6DmjxP8HxrNuYILY9OpFawqV4O/I/uZpHFLWMpn40Q+GNK8NZt7INKemcVyfiLwzqOst5roVjXoDX6c61+y7r/AJpmtLfPNcBf/s0+OcsgtGKn/PpXdTr1mvhf3HIqFOcruS+8/M6LwjdXV0tvFETtNfTHgTwtc6fbofLNfW3h/wDZo1+yXzbixbP0/wDrV2Vj8GPE9rII1sH2+uKc3Vl9l/cXChSpT5+ZfecT4K0NNguJo8MBWx4lhleMrGpNe06f8MPEdrEMWrAVfn+HuuOuWs2Jx6VFKNXm1i/uCtXp20aPhDV7FYw/2qPmv0I/YdiSL4f3you3NyT+gr5n8ffCLx7fMx03T3PpxX1v+x54U8S+EvA93YeJrdreZ7gsobuMV9TlqldXR87jJxafKfXw6UtIOlLXtHlhRRRQAUUUUAf/0v37NR4A6CpaKAIxincelOooHcbj1FNwKkooFcZik61JRQAzHtRzT6KB3G7c0m2n0UBcZjtRsFPooC40im4X0FSUUCuMKr3FCgDpx7U+igAooooAKKKKACiiigD/2Q==;" vertex="1" parent="1">
          <mxGeometry x="178.39" y="243.75" width="78.22" height="182.5" as="geometry" />
        </mxCell>
      </root>
    </mxGraphModel>
  </diagram>
</mxfile>
